<?xml version="1.0" encoding="UTF-8"?>
<svg version="1.1" xmlns="http://www.w3.org/2000/svg" width="500" height="500">
<path d="M0 0 C1.43495531 -0.00599307 2.86990741 -0.01280039 4.30485535 -0.02035522 C8.18544772 -0.03794927 12.06595176 -0.04270798 15.94658017 -0.0439868 C18.37832052 -0.04541339 20.81003877 -0.04969271 23.24177361 -0.05498123 C31.74648322 -0.07346398 40.25113034 -0.08165458 48.75585938 -0.08007812 C56.64815178 -0.07887916 64.54016963 -0.09993774 72.43239266 -0.13156545 C79.2352928 -0.15784326 86.03810396 -0.16844054 92.84105438 -0.16716731 C96.89195831 -0.16666078 100.94261836 -0.17217 104.99347115 -0.19352341 C108.81120348 -0.21309943 112.62846426 -0.2129005 116.44621468 -0.19849014 C118.4888962 -0.19545107 120.53157877 -0.21194435 122.57418823 -0.22937012 C136.27907229 -0.13771337 148.02872404 3.04103944 159.74389648 10.29052734 C160.66944336 10.80486328 161.59499023 11.31919922 162.54858398 11.84912109 C163.63526367 12.56261719 163.63526367 12.56261719 164.74389648 13.29052734 C164.74389648 13.95052734 164.74389648 14.61052734 164.74389648 15.29052734 C165.33686523 15.56251953 165.92983398 15.83451172 166.54077148 16.11474609 C177.44143451 21.93229853 183.95378843 36.28058015 187.81066895 47.35305786 C189.13828872 52.13099051 189.0547718 56.89290322 189.06616211 61.82128906 C189.07609192 62.85814346 189.08602173 63.89499786 189.09625244 64.96327209 C189.1253774 68.38228048 189.13908376 71.80110293 189.15014648 75.22021484 C189.15862862 76.98258169 189.15862862 76.98258169 189.1672821 78.78055191 C189.19722871 85.00524031 189.21570784 91.22983655 189.22436523 97.45458984 C189.23529358 103.84392768 189.28327142 110.23240424 189.34030914 116.62147331 C189.37781522 121.56845442 189.38798668 126.51523394 189.39103699 131.46234512 C189.39704006 133.81518354 189.41292545 136.16802058 189.43940735 138.52071762 C189.63364481 157.11287156 187.8651628 172.4104256 175.74389648 187.29052734 C174.96079102 188.41007812 174.96079102 188.41007812 174.16186523 189.55224609 C173.4599707 190.41269531 173.4599707 190.41269531 172.74389648 191.29052734 C172.08389648 191.29052734 171.42389648 191.29052734 170.74389648 191.29052734 C170.74389648 191.95052734 170.74389648 192.61052734 170.74389648 193.29052734 C170.08389648 193.29052734 169.42389648 193.29052734 168.74389648 193.29052734 C168.74389648 193.95052734 168.74389648 194.61052734 168.74389648 195.29052734 C149.75653517 211.58941272 127.47988586 212.48921637 103.74456787 212.30456161 C100.75166639 212.2823079 97.7588302 212.26838228 94.76586914 212.25686646 C86.26577951 212.22346849 77.76580021 212.18131844 69.26586914 212.11914062 C64.04548415 212.08154041 58.82520591 212.05849146 53.60470581 212.04483414 C51.62072748 212.03678124 49.63676362 212.02317429 47.65286255 212.00390244 C44.88880035 211.97748381 42.12525655 211.96953674 39.36108398 211.96582031 C38.54340042 211.95346344 37.72571686 211.94110657 36.883255 211.92837524 C32.489426 211.94398898 29.99050946 212.26231629 26.74389648 215.29052734 C26.08389648 215.29052734 25.42389648 215.29052734 24.74389648 215.29052734 C24.74389648 215.95052734 24.74389648 216.61052734 24.74389648 217.29052734 C22.69260485 218.89575408 20.64010169 220.38413105 18.49389648 221.85302734 C17.21164838 222.74612729 15.93041743 223.64068916 14.65014648 224.53662109 C13.99916992 224.99149902 13.34819336 225.44637695 12.67749023 225.91503906 C8.7273588 228.72501892 4.9073519 231.70967543 1.07202148 234.67333984 C-1.25610352 236.29052734 -1.25610352 236.29052734 -3.25610352 236.29052734 C-3.25610352 236.95052734 -3.25610352 237.61052734 -3.25610352 238.29052734 C-5.05688477 239.73583984 -5.05688477 239.73583984 -7.56860352 241.41552734 C-12.46115252 244.73771468 -17.24294913 248.1842575 -22.00610352 251.68896484 C-25.6370318 254.27347977 -27.78052452 254.64857366 -32.25610352 254.29052734 C-35.39201922 252.5106833 -36.09713087 251.76744527 -37.25610352 248.29052734 C-37.34279881 246.77145111 -37.37379752 245.24883733 -37.36962891 243.72729492 C-37.36955338 242.80656693 -37.36947784 241.88583893 -37.36940002 240.93721008 C-37.36423874 239.94650009 -37.35907745 238.9557901 -37.35375977 237.93505859 C-37.35234482 236.91828537 -37.35092987 235.90151215 -37.34947205 234.85392761 C-37.34387058 231.60359771 -37.33131784 228.35333646 -37.31860352 225.10302734 C-37.3135887 222.90055438 -37.30902576 220.69808034 -37.30493164 218.49560547 C-37.29390069 213.0938893 -37.27716114 207.69221323 -37.25610352 202.29052734 C-37.87557861 201.98800049 -38.49505371 201.68547363 -39.13330078 201.3737793 C-44.85327986 198.45491246 -50.00386767 194.07429267 -54.25610352 189.29052734 C-54.25610352 188.63052734 -54.25610352 187.97052734 -54.25610352 187.29052734 C-55.24610352 186.96052734 -56.23610352 186.63052734 -57.25610352 186.29052734 C-58.71721153 184.26837785 -59.96111367 182.32062388 -61.19360352 180.16552734 C-61.86262695 179.04919922 -62.53165039 177.93287109 -63.22094727 176.78271484 C-69.98585083 163.01489766 -69.86543937 148.84739489 -69.82250977 133.85693359 C-69.82775796 131.6074142 -69.83403876 129.357897 -69.84129333 127.10838318 C-69.85164443 122.41598076 -69.84721228 117.72388259 -69.83251953 113.03149414 C-69.81533708 107.05932079 -69.8388496 101.08811014 -69.87400913 95.11604404 C-69.89611331 90.47704358 -69.89451031 85.8382689 -69.88624382 81.1992321 C-69.88543149 78.99911378 -69.89215533 76.79897767 -69.90701485 74.59890938 C-70.03030148 53.04797282 -66.18423561 35.34688421 -51.03344727 18.99365234 C-47.99774837 16.0847189 -44.73205378 13.64585272 -41.25610352 11.29052734 C-40.62961914 10.84837891 -40.00313477 10.40623047 -39.35766602 9.95068359 C-34.03083684 6.37409829 -28.37184663 4.17292677 -22.25610352 2.29052734 C-21.17019424 1.94806976 -20.08428497 1.60561218 -18.96546936 1.2527771 C-12.73686956 -0.27671559 -6.37353762 -0.00532982 0 0 Z M-32.25610352 25.29052734 C-32.8787207 25.66693359 -33.50133789 26.04333984 -34.14282227 26.43115234 C-35.55902403 27.3158658 -36.91612468 28.29413282 -38.25610352 29.29052734 C-38.25610352 29.95052734 -38.25610352 30.61052734 -38.25610352 31.29052734 C-38.91610352 31.29052734 -39.57610352 31.29052734 -40.25610352 31.29052734 C-51.17763612 43.5122424 -53.4639695 56.25545053 -53.34130859 72.04199219 C-53.33812622 72.97173355 -53.33494385 73.90147491 -53.33166504 74.85939026 C-53.31916689 77.90681705 -53.29827309 80.9540974 -53.27563477 84.00146484 C-53.26867773 85.04964008 -53.2617207 86.09781532 -53.25455284 87.17775345 C-53.21728159 92.72126852 -53.17334299 98.26468503 -53.12402344 103.80810547 C-53.07464312 109.50929632 -53.04846675 115.21034687 -53.02759266 120.91170311 C-53.00715425 125.31983633 -52.96925488 129.72769934 -52.92673302 134.13566971 C-52.90948147 136.23659582 -52.89871836 138.3375863 -52.89478493 140.43857956 C-52.85780854 155.70784875 -52.12640509 167.59940708 -41.25610352 179.29052734 C-36.65714451 183.86132946 -31.72030141 187.44924008 -26.13891602 190.73583984 C-23.69619547 192.75285805 -23.21650641 194.26913083 -22.25610352 197.29052734 C-22.03036438 199.70711146 -21.90195127 202.13369347 -21.84204102 204.56005859 C-21.82267487 205.24106125 -21.80330872 205.9220639 -21.78335571 206.623703 C-21.7239222 208.78335327 -21.67732152 210.94305791 -21.63110352 213.10302734 C-21.59289024 214.57375278 -21.55383658 216.04445663 -21.51391602 217.51513672 C-21.41825169 221.10673524 -21.33408777 224.69849648 -21.25610352 228.29052734 C-17.7942125 228.29052734 -17.18976935 227.7548571 -14.53344727 225.70068359 C-13.83026367 225.16378906 -13.12708008 224.62689453 -12.40258789 224.07373047 C-11.67362305 223.50589844 -10.9446582 222.93806641 -10.19360352 222.35302734 C-8.74534732 221.23849421 -7.2961712 220.12515511 -5.84594727 219.01318359 C-5.20520264 218.51568604 -4.56445801 218.01818848 -3.90429688 217.50561523 C-2.25610352 216.29052734 -2.25610352 216.29052734 -0.25610352 215.29052734 C-0.25610352 214.63052734 -0.25610352 213.97052734 -0.25610352 213.29052734 C0.83250977 212.91154297 0.83250977 212.91154297 1.94311523 212.52490234 C4.94756825 211.20076405 7.03920794 209.63886222 9.55639648 207.54052734 C10.85577148 206.47705078 10.85577148 206.47705078 12.18139648 205.39208984 C13.02702148 204.69857422 13.87264648 204.00505859 14.74389648 203.29052734 C16.17266459 202.15445826 17.60934862 201.02821945 19.05639648 199.91552734 C19.6506543 199.45404297 20.24491211 198.99255859 20.85717773 198.51708984 C26.11783028 195.09712111 30.75781435 195.0167433 36.84179688 195.0793457 C37.7498407 195.08065994 38.65788452 195.08197418 39.59344482 195.08332825 C42.5929205 195.08981374 45.59214023 195.11025464 48.59155273 195.13037109 C50.68557967 195.13664646 52.77960994 195.14188491 54.87364197 195.14613342 C60.39119907 195.15943705 65.90864551 195.18385442 71.42614746 195.21148682 C80.23165562 195.25457469 89.03719028 195.2844846 97.84277153 195.30752754 C100.90467014 195.31766619 103.96647316 195.33473247 107.02833557 195.3525238 C132.89579718 195.49056428 132.89579718 195.49056428 155.74389648 184.29052734 C156.85764648 183.51902344 156.85764648 183.51902344 157.99389648 182.73193359 C158.57139648 182.25626953 159.14889648 181.78060547 159.74389648 181.29052734 C159.74389648 180.63052734 159.74389648 179.97052734 159.74389648 179.29052734 C160.40389648 179.29052734 161.06389648 179.29052734 161.74389648 179.29052734 C162.40389648 177.64052734 163.06389648 175.99052734 163.74389648 174.29052734 C164.40389648 174.29052734 165.06389648 174.29052734 165.74389648 174.29052734 C166.54898751 172.81862429 167.33714223 171.33745667 168.11889648 169.85302734 C168.55975586 169.02931641 169.00061523 168.20560547 169.45483398 167.35693359 C172.46923394 160.18631551 173.04034289 153.06038891 173.01855469 145.35546875 C173.02366562 144.40622025 173.02877655 143.45697174 173.03404236 142.47895813 C173.04784898 139.36660309 173.04698831 136.25447172 173.04467773 133.14208984 C173.04856958 130.96169962 173.05290525 128.78131014 173.05766296 126.60092163 C173.06510601 122.04007505 173.06484781 117.47930591 173.05957031 112.91845703 C173.05377851 107.09606583 173.07070929 101.27399303 173.09391499 95.45165443 C173.10870148 90.95100068 173.10951733 86.45042274 173.10640526 81.94974899 C173.106916 79.80411524 173.11210703 77.65847697 173.12221718 75.51286697 C173.41847217 56.7909072 173.41847217 56.7909072 166.68139648 39.60302734 C166.17479492 38.77416016 165.66819336 37.94529297 165.14624023 37.09130859 C164.6834668 36.49705078 164.22069336 35.90279297 163.74389648 35.29052734 C163.08389648 35.29052734 162.42389648 35.29052734 161.74389648 35.29052734 C161.49639648 34.67177734 161.24889648 34.05302734 160.99389648 33.41552734 C159.53761009 30.93984048 158.36577142 30.33927732 155.74389648 29.29052734 C155.74389648 28.63052734 155.74389648 27.97052734 155.74389648 27.29052734 C146.51750565 20.37554966 136.16626444 17.18329256 124.71224976 17.15008545 C123.52653381 17.14437531 122.34081787 17.13866516 121.11917114 17.13278198 C119.83179047 17.13166412 118.54440979 17.13054626 117.21801758 17.12939453 C115.83760446 17.12476104 114.45719261 17.11973567 113.07678223 17.11434937 C109.33678211 17.10127222 105.59679992 17.09478929 101.85678053 17.09033871 C99.51520138 17.08739967 97.17362704 17.08329326 94.83205032 17.07883453 C87.49149454 17.06517033 80.15094986 17.05549909 72.81038225 17.05163264 C64.36371619 17.04715804 55.91721245 17.02963345 47.47059572 17.00063205 C40.92426586 16.97894302 34.37798142 16.96892448 27.83161604 16.96759152 C23.9300426 16.96654841 20.02862195 16.96074703 16.12708664 16.94277191 C12.45145514 16.92616631 8.77608924 16.92419547 5.10043335 16.93291092 C3.12753347 16.93403563 1.15464191 16.92041415 -0.81820679 16.90615845 C-12.49033118 16.96020964 -22.3685234 18.97183709 -32.25610352 25.29052734 Z " fill="#D8D8D8" transform="translate(190.256103515625,118.70947265625)"/>
<path d="M0 0 C-1.35241171 4.05723514 -3.91677144 4.81903611 -7.5 6.6875 C-14.77359868 10.65660515 -22.57441979 15.10019258 -26 23 C-26.66 23 -27.32 23 -28 23 C-28.1134375 23.66902344 -28.226875 24.33804688 -28.34375 25.02734375 C-29.13963629 28.63251915 -30.30045291 32.07695888 -31.5 35.5625 C-34.24135432 43.12872412 -34.24135432 43.12872412 -34.95703125 51.046875 C-34.92512695 52.1915625 -34.92512695 52.1915625 -34.89257812 53.359375 C-34.83970079 54.93795698 -34.77482908 56.51618828 -34.69726562 58.09375 C-34.49894387 66.84928831 -38.24175317 72.37278321 -43.5625 79.125 C-48.03782461 84.81537901 -51.13322591 89.71909765 -52 97 C-47.545 97.99 -47.545 97.99 -43 99 C-42.27701154 102.37394616 -41.95546103 104.77285123 -42.625 108.1875 C-42.74875 109.115625 -42.8725 110.04375 -43 111 C-42.505 111.474375 -42.01 111.94875 -41.5 112.4375 C-41.005 112.953125 -40.51 113.46875 -40 114 C-40.2475 115.670625 -40.2475 115.670625 -40.5 117.375 C-41.39281207 120.94779674 -41.39281207 120.94779674 -39.4921875 123.3515625 C-37.61273118 126.68735147 -37.98909492 128.2794807 -38.625 132 C-39.25980741 136.87319023 -39.25980741 136.87319023 -36.875 141.125 C-31.14408438 144.86255366 -25.01837418 145.9823533 -18.4140625 147.32421875 C-13.29429024 148.44874016 -9.43854693 150.20102186 -5 153 C-5 153.99 -5 154.98 -5 156 C-9.37412668 156.09991855 -13.74762437 156.17195484 -18.12255859 156.21972656 C-19.60640048 156.23966981 -21.09016555 156.2668349 -22.57373047 156.30175781 C-31.40128289 156.5041427 -39.01626381 156.31408711 -47 152 C-47 151.34 -47 150.68 -47 150 C-47.66 150 -48.32 150 -49 150 C-53.43261092 144.18219817 -53.30744469 139.50009675 -52.9453125 132.3046875 C-53.00086292 128.9478547 -53.68602028 127.03539502 -55 124 C-55.125 121.8671875 -55.125 121.8671875 -55 119.875 C-54.64175612 115.9364406 -54.64175612 115.9364406 -57 113 C-57.25760279 110.30547479 -57.08900053 107.71451625 -57 105 C-58.3303125 104.62875 -58.3303125 104.62875 -59.6875 104.25 C-63.6798152 102.74346596 -67.04062332 100.91875337 -69 97 C-68.84629237 87.47012724 -64.87906937 79.93403659 -59.37890625 72.28515625 C-53.78732286 64.50530343 -50.84253167 59.86815952 -52 50 C-51.9617773 37.1380604 -47.73406302 25.45089757 -39 16 C-38.45472656 15.36449219 -37.90945313 14.72898438 -37.34765625 14.07421875 C-28.29580351 4.12782998 -13.22142233 -0.89636762 0 0 Z " fill="#D2D2D2" transform="translate(325,145)"/>
<path d="M0 0 C13.73392266 -0.9311134 26.02331845 4.50384325 36.25 13.375 C47.50210835 24.00102504 51.3938955 36.18636499 51.95703125 51.40625 C52 55 52 55 51.7265625 58.03125 C52.10669734 62.15842825 54.17825564 64.75898465 56.5625 68 C69.1425571 86.0263287 69.1425571 86.0263287 69.75 94.5625 C68.79904406 98.92104804 67.60276317 100.39374579 64 103 C61.65667576 103.92474159 59.47852109 104.46541702 57 105 C57.04125 106.216875 57.0825 107.43375 57.125 108.6875 C57.13763357 112.28175078 56.39800554 114.67973684 55 118 C54.96079185 119.99961564 54.95556653 122.00049364 55 124 C54.67 124.66 54.34 125.32 54 126 C53.91910833 127.36654903 53.89170317 128.73653058 53.89453125 130.10546875 C53.87970703 130.92466797 53.86488281 131.74386719 53.84960938 132.58789062 C53.82515098 134.30126564 53.81949677 136.01502729 53.83398438 137.72851562 C53.68740816 143.41833782 52.54907723 146.47304858 48.63183594 150.63061523 C42.7961394 155.52774598 35.50024968 156.12995705 28.16796875 156.09765625 C26.87568359 156.09443359 25.58339844 156.09121094 24.25195312 156.08789062 C22.89713474 156.07953665 21.54231703 156.07107172 20.1875 156.0625 C18.81315265 156.05748 17.43880355 156.05291797 16.06445312 156.04882812 C12.70959076 156.03705668 9.35481779 156.02061283 6 156 C6 155.01 6 154.02 6 153 C10.4904187 149.26034531 14.72412886 148.09942289 20.375 147 C31.09369641 144.94011842 31.09369641 144.94011842 39 138 C38.85718974 134.96203636 38.42236254 132.01810008 37.99609375 129.0078125 C38.00074569 125.4258167 39.10647215 123.96421375 41 121 C40.814375 119.845 40.62875 118.69 40.4375 117.5 C40 114 40 114 41.9375 111.0625 C42.618125 110.381875 43.29875 109.70125 44 109 C43.649375 108.46375 43.29875 107.9275 42.9375 107.375 C41.71075751 104.26725237 42.27143569 102.20568297 43 99 C47.455 98.01 47.455 98.01 52 97 C51.77833853 87.025234 44.13092631 79.02126759 38.48046875 71.2890625 C35.15935787 66.15404674 34.88235765 62.18293139 35.1875 56.1875 C35.45391207 46.5851279 33.35635652 37.34103598 28.8359375 28.80078125 C28 27 28 27 28 23 C27.34 23 26.68 23 26 23 C24.80859375 21.49609375 24.80859375 21.49609375 23.4375 19.4375 C17.41251363 11.18588823 8.95746838 6.57082031 0 2 C0 1.34 0 0.68 0 0 Z " fill="#D7D7D7" transform="translate(175,145)"/>
<path d="M0 0 C0.33 0 0.66 0 1 0 C1.17235451 5.08445816 0.98125768 8.29451301 -1 13 C-1.03920815 14.99961564 -1.04443347 17.00049364 -1 19 C-1.33 19.66 -1.66 20.32 -2 21 C-2.08089167 22.36654903 -2.10829683 23.73653058 -2.10546875 25.10546875 C-2.12770508 26.33426758 -2.12770508 26.33426758 -2.15039062 27.58789062 C-2.17484902 29.30126564 -2.18050323 31.01502729 -2.16601562 32.72851562 C-2.31259184 38.41833782 -3.45092277 41.47304858 -7.36816406 45.63061523 C-13.2038606 50.52774598 -20.49975032 51.12995705 -27.83203125 51.09765625 C-29.12431641 51.09443359 -30.41660156 51.09121094 -31.74804688 51.08789062 C-33.10286526 51.07953665 -34.45768297 51.07107172 -35.8125 51.0625 C-37.18684735 51.05748 -38.56119645 51.05291797 -39.93554688 51.04882812 C-43.29040924 51.03705668 -46.64518221 51.02061283 -50 51 C-50 50.01 -50 49.02 -50 48 C-45.5095813 44.26034531 -41.27587114 43.09942289 -35.625 42 C-24.90630359 39.94011842 -24.90630359 39.94011842 -17 33 C-17.14281026 29.96203636 -17.57763746 27.01810008 -18.00390625 24.0078125 C-17.99926075 20.43077605 -17.1817235 18.79549442 -15 16 C-14.34 16 -13.68 16 -13 16 C-13.20625 15.236875 -13.4125 14.47375 -13.625 13.6875 C-14 11 -14 11 -12 8 C-11.01 8 -10.02 8 -9 8 C-8.67 7.34 -8.34 6.68 -8 6 C-7.071875 6.309375 -7.071875 6.309375 -6.125 6.625 C-5.42375 6.74875 -4.7225 6.8725 -4 7 C-3.34 6.34 -2.68 5.68 -2 5 C-1.67 5 -1.34 5 -1 5 C-0.67 3.35 -0.34 1.7 0 0 Z " fill="#D4D4D4" transform="translate(231,250)"/>
<path d="M0 0 C2 2 2 2 2 6 C2.66 6.33 3.32 6.66 4 7 C3.34 8.98 2.68 10.96 2 13 C-2.00320153 13.95377184 -5.72211747 14.1157616 -9.83203125 14.09765625 C-11.12431641 14.09443359 -12.41660156 14.09121094 -13.74804688 14.08789062 C-15.10286526 14.07953665 -16.45768297 14.07107172 -17.8125 14.0625 C-19.18684735 14.05748 -20.56119645 14.05291797 -21.93554688 14.04882812 C-25.29040924 14.03705668 -28.64518221 14.02061283 -32 14 C-32 13.01 -32 12.02 -32 11 C-27.49275721 7.2415871 -23.17815429 6.05017874 -17.5 4.9375 C-11.69966492 3.77029725 -5.59594692 0 0 0 Z " fill="#D9D9D9" transform="translate(213,287)"/>
<path d="M0 0 C-1.35217238 4.05651715 -3.91645989 4.82024312 -7.5 6.6875 C-13.75142244 10.07788516 -18.93630804 13.96310007 -24 19 C-24.33 18.34 -24.66 17.68 -25 17 C-25.66 16.67 -26.32 16.34 -27 16 C-26.484375 15.236875 -25.96875 14.47375 -25.4375 13.6875 C-24.7259375 12.3571875 -24.7259375 12.3571875 -24 11 C-24.33 10.01 -24.66 9.02 -25 8 C-25.66 7.67 -26.32 7.34 -27 7 C-18.81710005 1.71142207 -9.68174634 -0.65638958 0 0 Z " fill="#C3C3C3" transform="translate(325,145)"/>
<path d="M0 0 C11.35905082 -0.77010514 21.46417332 2.98774752 31 9 C30.06027344 9.20689453 30.06027344 9.20689453 29.1015625 9.41796875 C26.55736685 10.12258799 25.65626015 10.96731709 24 13 C23.3166712 14.3248713 22.64777596 15.65738743 22 17 C21.33355469 16.41992188 20.66710937 15.83984375 19.98046875 15.2421875 C13.68153723 9.90351267 7.40415883 5.65195455 0 2 C0 1.34 0 0.68 0 0 Z " fill="#C2C2C2" transform="translate(175,145)"/>
<path d="M0 0 C0.33 0.66 0.66 1.32 1 2 C0.59007812 2.54269531 0.18015625 3.08539063 -0.2421875 3.64453125 C-0.78101563 4.35996094 -1.31984375 5.07539063 -1.875 5.8125 C-2.40867187 6.52019531 -2.94234375 7.22789062 -3.4921875 7.95703125 C-4.70814781 9.60456297 -5.86416141 11.29624211 -7 13 C-7.66 13 -8.32 13 -9 13 C-9 13.66 -9 14.32 -9 15 C-9.66 15 -10.32 15 -11 15 C-11 15.66 -11 16.32 -11 17 C-12.98 17.99 -12.98 17.99 -15 19 C-15.80967438 16.08517222 -16.21845993 14.53886783 -15.0625 11.6875 C-14.711875 11.130625 -14.36125 10.57375 -14 10 C-14.66 9.67 -15.32 9.34 -16 9 C-12.40410959 2.66438356 -12.40410959 2.66438356 -10 1 C-8.328451 1.30791692 -6.66194453 1.64386903 -5 2 C-2.24743756 1.15020525 -2.24743756 1.15020525 0 0 Z " fill="#E1E1E1" transform="translate(370,297)"/>
<path d="M0 0 C-0.66 0 -1.32 0 -2 0 C-2.33 1.65 -2.66 3.3 -3 5 C3.6 5.33 10.2 5.66 17 6 C17 6.33 17 6.66 17 7 C7.43 7 -2.14 7 -12 7 C-12 6.01 -12 5.02 -12 4 C-4.65306122 -1.55102041 -4.65306122 -1.55102041 0 0 Z " fill="#6D6D6D" transform="translate(193,294)"/>
<path d="M0 0 C0.598125 0.20625 1.19625 0.4125 1.8125 0.625 C1.750625 1.553125 1.68875 2.48125 1.625 3.4375 C1.50355736 6.60895103 1.50355736 6.60895103 3.3125 8.5 C3.8075 8.87125 4.3025 9.2425 4.8125 9.625 C-2.8125 10.875 -2.8125 10.875 -6.1875 8.625 C-5.875 5.25 -5.875 5.25 -5.1875 1.625 C-2.1875 -0.375 -2.1875 -0.375 0 0 Z " fill="#ECECEC" transform="translate(204.1875,154.375)"/>
<path d="M0 0 C1.98 0.66 3.96 1.32 6 2 C5.1028125 2.1546875 5.1028125 2.1546875 4.1875 2.3125 C0.81204519 3.37335723 -0.52629909 5.12739306 -2.1875 8.1875 C-2.455625 8.785625 -2.72375 9.38375 -3 10 C-4.98 8.35 -6.96 6.7 -9 5 C-7 4 -7 4 -4.5 3.625 C-1.65525519 3.21161165 -1.65525519 3.21161165 0 0 Z " fill="#9E9E9E" transform="translate(200,152)"/>
<path d="M0 0 C1.32 0.66 2.64 1.32 4 2 C4 2.33 4 2.66 4 3 C-5.24 3 -14.48 3 -24 3 C-24 2.67 -24 2.34 -24 2 C-16.08 2 -8.16 2 0 2 C0 1.34 0 0.68 0 0 Z " fill="#F2F2F2" transform="translate(315,297)"/>
<path d="M0 0 C0.8125 1.6875 0.8125 1.6875 1 4 C-1.4375 6.75 -1.4375 6.75 -4 9 C-3.34 9.33 -2.68 9.66 -2 10 C-6.455 11.485 -6.455 11.485 -11 13 C-10.34 12.01 -9.68 11.02 -9 10 C-8.34 10 -7.68 10 -7 10 C-7 9.34 -7 8.68 -7 8 C-6.34 8 -5.68 8 -5 8 C-4.34 6.35 -3.68 4.7 -3 3 C-2.34 3 -1.68 3 -1 3 C-0.67 2.01 -0.34 1.02 0 0 Z " fill="#808080" transform="translate(357,290)"/>
<path d="M0 0 C0.33 0 0.66 0 1 0 C1.49230769 7.26153846 1.49230769 7.26153846 -1 11 C-1.66 11.66 -2.32 12.32 -3 13 C-3.66 11.35 -4.32 9.7 -5 8 C-4.02149805 6.97895449 -3.02019573 5.9793879 -2 5 C-1.67 5 -1.34 5 -1 5 C-0.67 3.35 -0.34 1.7 0 0 Z " fill="#A4A4A4" transform="translate(231,250)"/>
<path d="M0 0 C-1.10868317 2.21736634 -2.49440461 4.03617993 -4 6 C-5.65 5.67 -7.3 5.34 -9 5 C-9 4.34 -9 3.68 -9 3 C-8.34 3 -7.68 3 -7 3 C-7 2.34 -7 1.68 -7 1 C-4 0 -4 0 0 0 Z " fill="#D9D9D9" transform="translate(321,146)"/>
<path d="M0 0 C0.33 0.66 0.66 1.32 1 2 C1.99 2 2.98 2 4 2 C4 2.66 4 3.32 4 4 C3.34 4 2.68 4 2 4 C2 4.66 2 5.32 2 6 C0.02 6.99 0.02 6.99 -2 8 C-2.6875 5.6875 -2.6875 5.6875 -3 3 C-1.5625 1.1875 -1.5625 1.1875 0 0 Z " fill="#BFBFBF" transform="translate(357,308)"/>
<path d="M0 0 C1.98 0 3.96 0 6 0 C6 0.66 6 1.32 6 2 C0.58823529 6 0.58823529 6 -2 6 C-2 4.68 -2 3.36 -2 2 C-1.34 2 -0.68 2 0 2 C0 1.34 0 0.68 0 0 Z " fill="#A2A2A2" transform="translate(181,355)"/>
<path d="M0 0 C0.66 0.33 1.32 0.66 2 1 C2 2.32 2 3.64 2 5 C1.01 5.66 0.02 6.32 -1 7 C-1.99 5.68 -2.98 4.36 -4 3 C-2.68 2.01 -1.36 1.02 0 0 Z " fill="#B4B4B4" transform="translate(188,334)"/>
<path d="M0 0 C0.33 0.66 0.66 1.32 1 2 C-0.65 4.31 -2.3 6.62 -4 9 C-5 5 -5 5 -5 2 C-3.35 1.34 -1.7 0.68 0 0 Z " fill="#8D8D8D" transform="translate(370,297)"/>
<path d="M0 0 C1.21236328 0.01353516 1.21236328 0.01353516 2.44921875 0.02734375 C3.37154297 0.04474609 3.37154297 0.04474609 4.3125 0.0625 C3.9825 1.0525 3.6525 2.0425 3.3125 3.0625 C0.75 4.25 0.75 4.25 -1.6875 5.0625 C-2.0175 4.0725 -2.3475 3.0825 -2.6875 2.0625 C-3.0175 2.0625 -3.3475 2.0625 -3.6875 2.0625 C-5.02318021 1.73869874 -6.35673011 1.40592449 -7.6875 1.0625 C-4.80538698 0.10179566 -2.98899956 -0.04331883 0 0 Z " fill="#6F6F6F" transform="translate(320.6875,144.9375)"/>
<path d="M0 0 C0.66 0.33 1.32 0.66 2 1 C-2.18461538 6.78461538 -2.18461538 6.78461538 -6.3125 7.875 C-7.6428125 7.936875 -7.6428125 7.936875 -9 8 C-6.17493137 5.0702992 -3.21203935 2.49825283 0 0 Z " fill="#666666" transform="translate(213,315)"/>
<path d="M0 0 C0.8125 1.6875 0.8125 1.6875 1 4 C-1.4375 6.75 -1.4375 6.75 -4 9 C-4 5.00095031 -2.27413033 3.19799578 0 0 Z " fill="#767676" transform="translate(273,206)"/>
<path d="M0 0 C2.86724686 0.57344937 3.8614515 0.8614515 6 3 C4.35 3.66 2.7 4.32 1 5 C0.67 3.35 0.34 1.7 0 0 Z " fill="#BFBFBF" transform="translate(345,317)"/>
<path d="M0 0 C1.231394 3.69418201 0.64432764 6.2056261 0 10 C-2.72727273 5.90909091 -2.72727273 5.90909091 -3 3 C-1.5625 1.25 -1.5625 1.25 0 0 Z " fill="#5C5C5C" transform="translate(218,256)"/>
<path d="M0 0 C2.31 0.66 4.62 1.32 7 2 C6.67 2.99 6.34 3.98 6 5 C4.68 5 3.36 5 2 5 C1.34 3.35 0.68 1.7 0 0 Z " fill="#9D9D9D" transform="translate(199,163)"/>
</svg>
