<?xml version="1.0" encoding="UTF-8"?>
<svg version="1.1" xmlns="http://www.w3.org/2000/svg" width="500" height="500">
<path d="M0 0 C1.05975037 -0.00175232 2.11950073 -0.00350464 3.21136475 -0.00531006 C6.690406 -0.00968649 10.16939579 -0.00680544 13.6484375 -0.00341797 C16.08024098 -0.00409222 18.5120444 -0.00506325 20.94384766 -0.00631714 C26.03093103 -0.00778841 31.1179968 -0.00565789 36.20507812 -0.00097656 C42.71136883 0.00472036 49.21761828 0.00143831 55.72390747 -0.00454903 C60.74259754 -0.00817003 65.76127789 -0.00700897 70.77996826 -0.00442123 C73.1784465 -0.00375623 75.57692564 -0.00456544 77.97540283 -0.00690079 C81.33258384 -0.00945258 84.68969888 -0.00555116 88.046875 0 C89.52000153 -0.00303635 89.52000153 -0.00303635 91.02288818 -0.00613403 C98.77369072 0.01749595 106.38582279 0.04818248 113.5859375 3.19189453 C114.43285156 3.55412109 115.27976562 3.91634766 116.15234375 4.28955078 C117.07853516 4.70527344 117.07853516 4.70527344 118.0234375 5.12939453 C118.0234375 5.78939453 118.0234375 6.44939453 118.0234375 7.12939453 C118.6009375 7.23251953 119.1784375 7.33564453 119.7734375 7.44189453 C122.38004908 8.23835918 123.9969686 9.3200473 126.0234375 11.12939453 C126.0234375 11.78939453 126.0234375 12.44939453 126.0234375 13.12939453 C126.6834375 13.12939453 127.3434375 13.12939453 128.0234375 13.12939453 C136.30594902 21.6012206 139.13169643 32.48138693 139.16870117 44.01757812 C139.17205978 44.67860031 139.1754184 45.3396225 139.17887878 46.02067566 C139.18831972 48.18974729 139.19032838 50.35874117 139.19140625 52.52783203 C139.19462344 54.04708894 139.19798786 55.56634554 139.20149231 57.08560181 C139.20746632 60.2645947 139.20933397 63.44356048 139.20874023 66.62255859 C139.20863868 70.67970062 139.22229207 74.73666739 139.23951244 78.79376793 C139.25067484 81.93033637 139.25265815 85.06686299 139.25213051 88.20344925 C139.25330419 89.69844797 139.25769132 91.19344799 139.26546288 92.68842697 C139.34128072 108.77819876 136.43878903 119.86702509 125.3046875 131.90283203 C121.91228981 135.21390512 118.46200625 138.12438535 114.2109375 140.25439453 C113.60636719 140.56634766 113.00179687 140.87830078 112.37890625 141.19970703 C105.91140342 143.75238642 99.97304599 144.4120473 93.10400391 144.32128906 C91.82424431 144.31708199 91.82424431 144.31708199 90.51863098 144.31278992 C88.67934 144.30632807 86.84005964 144.29578209 85.00081253 144.28152847 C82.08205379 144.26191849 79.16378246 144.25987809 76.2449646 144.26339722 C67.9508411 144.27304706 59.65719951 144.27351796 51.36328125 144.20849609 C46.27675457 144.1698979 41.19149185 144.17045423 36.10490036 144.19607162 C34.17611422 144.19847511 32.24725123 144.18652569 30.31865311 144.15948868 C17.78505741 143.72395141 17.78505741 143.72395141 6.88818359 149.1875 C5.59699748 150.49857846 4.3078522 151.81168167 3.0234375 153.12939453 C2.3634375 153.12939453 1.7034375 153.12939453 1.0234375 153.12939453 C1.0234375 153.78939453 1.0234375 154.44939453 1.0234375 155.12939453 C-5.72637863 160.28476591 -16.54052977 168.49050703 -25.26953125 167.91064453 C-26.16285156 167.65283203 -27.05617187 167.39501953 -27.9765625 167.12939453 C-29.6158256 163.85086833 -29.02860267 160.22739396 -28.9765625 156.62939453 C-28.97270409 154.18991192 -28.97649242 151.75051573 -28.98046875 149.31103516 C-28.97725468 147.51597967 -28.94908136 145.72098628 -28.9140625 143.92626953 C-29.02748443 139.2133416 -29.02748443 139.2133416 -31.61328125 135.44580078 C-32.99670696 134.43128859 -34.41280541 133.46008314 -35.85546875 132.53173828 C-43.31550793 127.59959452 -48.76736024 118.00379922 -50.54243469 109.38034058 C-51.00287322 105.93236791 -51.11083269 102.62785587 -51.12182617 99.14941406 C-51.12518478 98.47863831 -51.1285434 97.80786255 -51.13200378 97.11676025 C-51.14144636 94.9152233 -51.14345346 92.71376294 -51.14453125 90.51220703 C-51.14774833 88.97052988 -51.15111274 87.42885304 -51.15461731 85.88717651 C-51.16059173 82.66110527 -51.16245893 79.43506075 -51.16186523 76.20898438 C-51.16176367 72.09130926 -51.17541716 67.9738068 -51.19263744 63.85617256 C-51.20379862 60.6732811 -51.20578319 57.49043085 -51.20525551 54.30752182 C-51.20642937 52.7901945 -51.21081752 51.27286589 -51.21858788 49.75555801 C-51.2637446 40.02792207 -51.08196545 31.6205154 -46.4765625 22.81689453 C-46.05375 21.99576172 -45.6309375 21.17462891 -45.1953125 20.32861328 C-43.9765625 18.12939453 -43.9765625 18.12939453 -41.9765625 15.12939453 C-41.3165625 15.12939453 -40.6565625 15.12939453 -39.9765625 15.12939453 C-39.71875 14.53126953 -39.4609375 13.93314453 -39.1953125 13.31689453 C-35.85935324 7.32927535 -28.85920116 4.3698497 -22.76171875 1.89111328 C-15.35114707 -0.13562091 -7.62849418 -0.01572353 0 0 Z M-35.35546875 24.92236328 C-40.74952507 33.6205279 -40.27473759 43.17807067 -40.2421875 53.03173828 C-40.24353755 54.47848068 -40.24548091 55.92522264 -40.24798584 57.3719635 C-40.25092206 60.39360911 -40.24668876 63.41513587 -40.23730469 66.43676758 C-40.22592127 70.28751327 -40.23247206 74.13797974 -40.24444962 77.98871517 C-40.25171777 80.97349607 -40.24935751 83.95821209 -40.24419403 86.94299507 C-40.24287067 88.36180213 -40.24445859 89.7806153 -40.24915314 91.19941521 C-40.30507984 104.60467008 -40.30507984 104.60467008 -35.9765625 117.12939453 C-35.3165625 117.12939453 -34.6565625 117.12939453 -33.9765625 117.12939453 C-33.3165625 118.77939453 -32.6565625 120.42939453 -31.9765625 122.12939453 C-31.3165625 122.12939453 -30.6565625 122.12939453 -29.9765625 122.12939453 C-29.9765625 122.78939453 -29.9765625 123.44939453 -29.9765625 124.12939453 C-28.3265625 124.78939453 -26.6765625 125.44939453 -24.9765625 126.12939453 C-24.9765625 126.78939453 -24.9765625 127.44939453 -24.9765625 128.12939453 C-22.9965625 128.78939453 -21.0165625 129.44939453 -18.9765625 130.12939453 C-18.98816406 131.20318359 -18.99976563 132.27697266 -19.01171875 133.38330078 C-19.02110565 134.81949694 -19.03020488 136.25569501 -19.0390625 137.69189453 C-19.04744141 138.39636719 -19.05582031 139.10083984 -19.06445312 139.82666016 C-19.08538853 144.36964251 -18.72456932 148.64724345 -17.9765625 153.12939453 C-13.60782102 151.65161322 -10.42334862 149.37951596 -6.7890625 146.56689453 C-1.13145999 142.20684328 -1.13145999 142.20684328 1.0234375 141.12939453 C1.0234375 140.46939453 1.0234375 139.80939453 1.0234375 139.12939453 C2.35677083 138.46272786 3.69010417 137.7960612 5.0234375 137.12939453 C5.88124817 136.61751083 6.73905884 136.10562714 7.62286377 135.57823181 C11.86887307 133.76919103 15.24904708 133.71674632 19.80761719 133.76049805 C20.67025177 133.75673157 21.53288635 133.75296509 22.42166138 133.74908447 C24.28769598 133.74266831 26.15376329 133.74296668 28.01979828 133.74926949 C30.98048083 133.75840935 33.940534 133.74812149 36.90118408 133.73265076 C45.31627456 133.69263919 53.73131457 133.69134268 62.14648438 133.69360352 C67.30177204 133.69365481 72.45672092 133.67438837 77.61191559 133.64426994 C80.51565496 133.63350344 83.4187312 133.6455418 86.32244873 133.65809631 C98.81266259 133.63375219 108.11388484 132.31554673 118.0234375 124.12939453 C118.0234375 123.46939453 118.0234375 122.80939453 118.0234375 122.12939453 C118.6834375 122.12939453 119.3434375 122.12939453 120.0234375 122.12939453 C121.55946529 120.16105072 121.55946529 120.16105072 123.0234375 117.62939453 C123.5390625 116.79408203 124.0546875 115.95876953 124.5859375 115.09814453 C128.63003699 106.74619993 128.33446523 98.32580338 128.32421875 89.22705078 C128.32811362 87.78030781 128.3324499 86.33356597 128.33720398 84.88682556 C128.34463384 81.86518637 128.34439834 78.84366409 128.33911133 75.82202148 C128.33331785 71.97118541 128.35026015 68.1208305 128.373456 64.27007389 C128.38826584 61.285286 128.38905531 58.30061212 128.38594627 55.31579399 C128.38645575 53.89697758 128.39162239 52.47815415 128.40175819 51.05937386 C128.45125098 43.16458182 128.14509533 36.42937315 125.0234375 29.12939453 C124.6934375 28.13939453 124.3634375 27.14939453 124.0234375 26.12939453 C123.3634375 26.12939453 122.7034375 26.12939453 122.0234375 26.12939453 C121.77851563 25.37916016 121.53359375 24.62892578 121.28125 23.85595703 C119.8688151 20.79421926 118.55932802 19.53483015 115.8984375 17.50439453 C115.17398438 16.93462891 114.44953125 16.36486328 113.703125 15.77783203 C106.32742613 11.24059454 99.91422919 10.68932428 91.44189453 10.7253418 C90.30586792 10.71847855 89.16984131 10.7116153 87.99938965 10.70454407 C84.25988109 10.68630641 80.52079332 10.69010971 76.78125 10.69580078 C74.17104964 10.69123733 71.56085049 10.68593127 68.95065308 10.67991638 C63.48512785 10.66990595 58.01972109 10.67316639 52.55419922 10.68334961 C46.25794573 10.69482222 39.96211864 10.68076265 33.66592133 10.65395314 C27.58329013 10.62903339 21.50085409 10.62663381 15.41817856 10.63306999 C12.84189012 10.63322296 10.26559337 10.62719892 7.68933487 10.61477852 C4.08049452 10.59983134 0.47258171 10.61057469 -3.13623047 10.62768555 C-4.1910965 10.61801758 -5.24596252 10.60834961 -6.33279419 10.59838867 C-18.43745469 10.71801907 -27.91041983 15.24169061 -35.35546875 24.92236328 Z " fill="#D9D9D9" transform="translate(205.9765625,117.87060546875)"/>
<path d="M0 0 C2.375 1.625 2.375 1.625 4 3 C4.85851562 2.55527344 4.85851562 2.55527344 5.734375 2.1015625 C12.92140585 -1.39282146 19.75202142 -3.34250615 27.6875 -1.3125 C31.62899737 0.92456607 34.39040289 2.842761 35.67651367 7.39404297 C37.1225939 15.77455562 37.05084548 23.77567485 36.625 32.25 C36.56656427 33.5923986 36.50926636 34.93484724 36.453125 36.27734375 C36.31320184 39.51889697 36.16196168 42.75948603 36 46 C32.37 46 28.74 46 25 46 C24.970271 44.5773584 24.970271 44.5773584 24.93994141 43.12597656 C24.86174239 39.59967636 24.77504634 36.07379639 24.68261719 32.54785156 C24.64438734 31.02319342 24.609524 29.49844693 24.578125 27.97363281 C24.53234338 25.77897619 24.47437234 23.5849246 24.4140625 21.390625 C24.40251129 20.7113092 24.39096008 20.03199341 24.37905884 19.33209229 C24.26861809 15.77279924 24.07079977 12.96606011 22 10 C18.5980806 8.58253358 17.24440961 8.89936075 13.8125 10.3125 C10.98231511 11.85599447 10.98231511 11.85599447 9 14 C8.75498505 16.43176397 8.62675079 18.75864884 8.5859375 21.1953125 C8.56657135 21.90275604 8.5472052 22.61019958 8.5272522 23.33908081 C8.46742348 25.60093085 8.42105899 27.8628317 8.375 30.125 C8.33682314 31.6575744 8.29777158 33.19012728 8.2578125 34.72265625 C8.16171961 38.48159624 8.07770151 42.24063668 8 46 C4.04 46 0.08 46 -4 46 C-4.33 34.45 -4.66 22.9 -5 11 C-8.64406062 9.78531313 -12.24587199 9.07865723 -16 10 C-19.32876629 12.67211574 -20.83899409 14.16659623 -21.65942383 18.41333008 C-21.67513428 19.68587646 -21.69084473 20.95842285 -21.70703125 22.26953125 C-21.72215256 22.95053391 -21.73727386 23.63153656 -21.75285339 24.33317566 C-21.79560078 26.49329063 -21.80455435 28.65200493 -21.8125 30.8125 C-21.83565489 32.28324002 -21.86102231 33.75394698 -21.88867188 35.22460938 C-21.9513916 38.81637971 -21.98383125 42.40768404 -22 46 C-25.96 46 -29.92 46 -34 46 C-34 30.49 -34 14.98 -34 -1 C-30.04 -1 -26.08 -1 -22 -1 C-21.67 -0.34 -21.34 0.32 -21 1 C-19.824375 0.505 -18.64875 0.01 -17.4375 -0.5 C-11.2714333 -2.79460331 -6.07438345 -2.56473968 0 0 Z " fill="#DEDEDE" transform="translate(201,318)"/>
<path d="M0 0 C1.82556117 1.82556117 1.12772403 4.70538603 1.12939453 7.15625 C1.13254669 8.47431641 1.13569885 9.79238281 1.13894653 11.15039062 C1.13715675 12.60026075 1.1351058 14.05013058 1.1328125 15.5 C1.13348557 16.97591162 1.13445563 18.45182313 1.13571167 19.92773438 C1.13718848 23.02475029 1.13503464 26.12173742 1.13037109 29.21875 C1.1246738 33.19708549 1.1279529 37.17535352 1.13394356 41.15368652 C1.13754963 44.20247917 1.13641037 47.25125571 1.13381577 50.30004883 C1.13314662 51.76733406 1.13397447 53.23462074 1.13629532 54.7019043 C1.13882257 56.74918593 1.1342906 58.79647266 1.12939453 60.84375 C1.12859894 62.01099609 1.12780334 63.17824219 1.12698364 64.38085938 C1 67 1 67 0 68 C-1.68608966 68.07205511 -3.37500659 68.08386068 -5.0625 68.0625 C-6.44115234 68.04896484 -6.44115234 68.04896484 -7.84765625 68.03515625 C-8.91306641 68.01775391 -8.91306641 68.01775391 -10 68 C-10.33 67.01 -10.66 66.02 -11 65 C-11.721875 65.495 -12.44375 65.99 -13.1875 66.5 C-18.93497132 69.35325773 -26.32827296 68.9461987 -32.41015625 67.37890625 C-37.778648 65.05152543 -41.25864986 61.10396112 -44 56 C-47.0385711 47.49784433 -46.76587759 39.19218894 -43 31 C-40.03937814 26.1081679 -37.18966872 22.58722488 -32 20 C-29.203125 19.3828125 -29.203125 19.3828125 -26.25 19.125 C-24.80367188 18.97417969 -24.80367188 18.97417969 -23.328125 18.8203125 C-20 19 -20 19 -11 22 C-11 15.4 -11 8.8 -11 2 C-6.56232095 0.22492838 -4.56129148 -0.31099715 0 0 Z M-29 32 C-29.69738281 32.54269531 -30.39476562 33.08539063 -31.11328125 33.64453125 C-33.76776174 36.95850999 -33.4657647 39.30832126 -33.375 43.5 C-33.36210937 44.8096875 -33.34921875 46.119375 -33.3359375 47.46875 C-33.03667952 50.61443852 -32.67105102 52.379792 -31 55 C-30.34 55 -29.68 55 -29 55 C-29 55.66 -29 56.32 -29 57 C-25.58794404 59.09972674 -22.9699753 59.33083127 -19 59 C-16.69769234 58.10168984 -16.69769234 58.10168984 -15 57 C-15 56.34 -15 55.68 -15 55 C-14.34 55 -13.68 55 -13 55 C-10.46118777 48.3356179 -9.98765912 41.04349035 -11 34 C-12.88872975 31.4394402 -14.16078867 30.27473287 -17.18359375 29.28515625 C-22.08309707 28.80114986 -25.02656215 28.70772293 -29 32 Z " fill="#D4D4D4" transform="translate(429,297)"/>
<path d="M0 0 C1 1 1 1 1.1328125 2.99609375 C1.13023438 3.80175781 1.12765625 4.60742188 1.125 5.4375 C1.12886719 6.64212891 1.12886719 6.64212891 1.1328125 7.87109375 C1 10 1 10 0 12 C-4.58823529 11.23529412 -4.58823529 11.23529412 -6.75 10 C-9.76057832 8.66196519 -12.47112852 8.57173229 -15.75 8.375 C-16.92046875 8.30023438 -18.0909375 8.22546875 -19.296875 8.1484375 C-20.63492188 8.07496094 -20.63492188 8.07496094 -22 8 C-22 8.66 -22 9.32 -22 10 C-22.66 10 -23.32 10 -24 10 C-24 13.3 -24 16.6 -24 20 C-23.34 20 -22.68 20 -22 20 C-22 20.66 -22 21.32 -22 22 C-21.46890625 22.12117188 -20.9378125 22.24234375 -20.390625 22.3671875 C-11.5731484 24.70122542 -2.87761495 27.70798573 3 35 C5.47544372 40.34695844 5.36743889 45.36056225 4 51 C2.00041974 56.27350443 -1.02148048 59.3643132 -6 62 C-14.92583462 65.6431978 -24.96846873 64.81435746 -33.9765625 61.8515625 C-36 61 -36 61 -39 59 C-39.28527337 55.14880946 -39.18082522 51.69007882 -38 48 C-34.53311287 48.44734027 -31.84621905 49.5279466 -28.75 51.0625 C-22.54792058 53.91545653 -16.55498189 53.69160823 -10 52 C-8.77585845 48.32757535 -8.53440993 45.8577463 -9 42 C-13.28824451 36.82888162 -19.55100908 34.92191718 -25.66015625 32.52734375 C-31.43620215 29.88590054 -34.68116063 26.84560515 -37.26953125 21.140625 C-38.76916713 16.74597011 -38.81421254 13.04956949 -37.09375 8.71875 C-36.12969251 6.76309053 -35.11561232 4.87263496 -34 3 C-33.34 3 -32.68 3 -32 3 C-32 2.34 -32 1.68 -32 1 C-21.93660293 -4.38274727 -10.45691853 -4.79378925 0 0 Z " fill="#D3D3D3" transform="translate(108,302)"/>
<path d="M0 0 C0 0.66 0 1.32 0 2 C-2.046875 3.4375 -2.046875 3.4375 -4.75 5 C-5.63171875 5.515625 -6.5134375 6.03125 -7.421875 6.5625 C-9.5901988 7.77150479 -11.76767294 8.91513077 -14 10 C-14 10.66 -14 11.32 -14 12 C-14.66 12 -15.32 12 -16 12 C-16.2784375 12.58265625 -16.556875 13.1653125 -16.84375 13.765625 C-17.93918445 15.88247807 -19.16434618 17.77909619 -20.5 19.75 C-24.50408636 26.15181359 -25.25849544 31.94105404 -24.97265625 39.41015625 C-25.04155388 45.93574651 -26.1851819 49.90149137 -30.0625 55.1875 C-33.42424503 59.59629506 -33.42424503 59.59629506 -34 65 C-33.38125 65.28875 -32.7625 65.5775 -32.125 65.875 C-30 67 -30 67 -28 69 C-28 71 -28 73 -28 75 C-27.67773438 75.55816406 -27.35546875 76.11632812 -27.0234375 76.69140625 C-25.28109664 80.62164843 -25.63979237 84.99711602 -25.609375 89.24414062 C-25.47944433 93.44794161 -25.47944433 93.44794161 -23.3359375 96.93359375 C-20.52894023 98.21504903 -18.06215334 98.6325416 -15 99 C-10.84739645 99.49831243 -7.97423279 99.91137364 -5 103 C-5 104.32 -5 105.64 -5 107 C-8.54150893 107.08761663 -12.08273633 107.14059739 -15.625 107.1875 C-16.62402344 107.21263672 -17.62304688 107.23777344 -18.65234375 107.26367188 C-28.42042191 107.36070576 -28.42042191 107.36070576 -33 104 C-37.18997611 99.25649862 -37.58331642 95.35140808 -37.625 89.3125 C-37.58989574 83.35424051 -37.58989574 83.35424051 -40 78 C-40.07905064 75.66800612 -40.08798769 73.33167378 -40 71 C-40.78375 70.71125 -41.5675 70.4225 -42.375 70.125 C-45 69 -45 69 -47 67 C-47.046875 64.9765625 -47.046875 64.9765625 -46.75 62.625 C-46.66234375 61.85414063 -46.5746875 61.08328125 -46.484375 60.2890625 C-45.98335114 57.9213207 -45.17347456 56.10648302 -44 54 C-43.34 54 -42.68 54 -42 54 C-41.566875 53.13375 -41.566875 53.13375 -41.125 52.25 C-40 50 -40 50 -38.953125 48.29296875 C-37.65878969 45.17913748 -37.71680394 42.42746762 -37.625 39.0625 C-37.25092652 30.63600257 -35.74786956 22.12180434 -31 15 C-30.34 15 -29.68 15 -29 15 C-28.731875 14.401875 -28.46375 13.80375 -28.1875 13.1875 C-24.44827665 6.299457 -17.15943387 3.24451705 -10 1 C-6.57849487 0.21707015 -3.51224926 -0.10034998 0 0 Z " fill="#D9D9D9" transform="translate(301,136)"/>
<path d="M0 0 C8.25199871 0.54111467 16.03970592 2.35980395 23 7 C23 7.66 23 8.32 23 9 C23.61875 9.2475 24.2375 9.495 24.875 9.75 C27.35068687 11.20628639 27.95125002 12.37812506 29 15 C29.66 15 30.32 15 31 15 C35.41701324 23.0978576 36.94286932 29.78607964 37.25 39 C37.65642392 45.99199668 39.83323624 49.5886185 44 55 C45.98296914 58.41550556 47.01480157 61.2303186 46.9375 65.25 C45.85414216 68.42784968 44.9171502 69.40882716 42 71 C41.34 71 40.68 71 40 71 C40.04125 72.093125 40.0825 73.18625 40.125 74.3125 C40 78 40 78 38 81 C37.74559396 84.53624398 37.63383327 88.03278004 37.609375 91.57617188 C37.44373727 96.81676554 36.43742435 99.82054862 33 104 C27.62666965 108.02999776 21.42587266 107.53548939 15 107 C11.25 106 11.25 106 9 105 C9.375 102.5625 9.375 102.5625 10 100 C12.82093143 98.58953429 15.58980434 98.67489538 18.7109375 98.4765625 C21.69688166 97.85491542 22.96439915 97.31276972 25 95 C25.40633211 92.08206437 25.60538445 89.48276566 25.625 86.5625 C25.77253418 77.8210999 25.77253418 77.8210999 28 74 C27.87625 72.5459375 27.87625 72.5459375 27.75 71.0625 C28 68 28 68 29.328125 66.50390625 C30.8298637 65.2653227 32.41151484 64.12517698 34 63 C33.71125 62.278125 33.4225 61.55625 33.125 60.8125 C32.08333333 58.20833333 31.04166667 55.60416667 30 53 C29.34 53 28.68 53 28 53 C25.97038861 48.78590727 25.69443626 44.90692232 25.5625 40.3125 C25.12839861 31.03688335 23.6309345 23.62900803 18 16 C17.67 15.2575 17.34 14.515 17 13.75 C15.70254556 11.47945473 14.34723946 11.06692703 12 10 C11 9 10 8 9 7 C8.01 6.67 7.02 6.34 6 6 C6 5.34 6 4.68 6 4 C4.35 3.67 2.7 3.34 1 3 C0.67 2.01 0.34 1.02 0 0 Z " fill="#DADADA" transform="translate(199,136)"/>
<path d="M0 0 C7.5290695 10.87532262 3.79707289 30.93499121 2.6875 43.4375 C1.06259046 43.46448189 -0.56244633 43.48388757 -2.1875 43.5 C-3.09242188 43.51160156 -3.99734375 43.52320313 -4.9296875 43.53515625 C-7.3125 43.4375 -7.3125 43.4375 -9.3125 42.4375 C-11.27465905 43.02917411 -11.27465905 43.02917411 -13.4375 43.9375 C-18.846404 45.81848104 -22.84758956 45.90956616 -28.26171875 43.609375 C-31.81596809 41.73165837 -34.30328151 39.90207617 -36.3125 36.4375 C-37.17151102 30.43158131 -37.59449188 24.48067456 -34.3125 19.25 C-25.86683173 14.14740876 -19.06489615 14.06767599 -9.3125 14.4375 C-9.6425 12.1275 -9.9725 9.8175 -10.3125 7.4375 C-16.52450461 4.15894201 -22.00318514 6.58336987 -28.3125 8.4375 C-30.6171875 9.10546875 -30.6171875 9.10546875 -32.3125 9.4375 C-33.3125 8.4375 -33.3125 8.4375 -33.41015625 6.37109375 C-33.39275391 5.13552734 -33.39275391 5.13552734 -33.375 3.875 C-33.36597656 3.04871094 -33.35695313 2.22242188 -33.34765625 1.37109375 C-33.33605469 0.73300781 -33.32445312 0.09492188 -33.3125 -0.5625 C-22.77307273 -6.33409113 -10.0703282 -6.80427581 0 0 Z M-24.3125 26.4375 C-24.81257794 29.97963985 -24.81257794 29.97963985 -24.3125 33.4375 C-22.33016487 35.84283071 -22.33016487 35.84283071 -18.5 35.8125 C-14.32803142 35.72147523 -12.25387062 34.46800306 -9.3125 31.4375 C-7.95810332 28.72870665 -8.24748549 26.42816732 -8.3125 23.4375 C-10.22845968 23.35616209 -12.14541932 23.29815633 -14.0625 23.25 C-15.12984375 23.21519531 -16.1971875 23.18039062 -17.296875 23.14453125 C-20.6574718 23.4710141 -21.99564066 24.00978614 -24.3125 26.4375 Z " fill="#E1E1E1" transform="translate(373.3125,320.5625)"/>
<path d="M0 0 C3.83939222 5.32810351 4.56273739 10.47208313 4.390625 16.875 C4.38496521 17.68493408 4.37930542 18.49486816 4.37347412 19.3293457 C4.3512902 21.88686167 4.30113203 24.44291591 4.25 27 C4.22991157 28.74607335 4.21166493 30.49216892 4.1953125 32.23828125 C4.15148505 36.49274075 4.08258721 40.74612357 4 45 C0.7 45 -2.6 45 -6 45 C-6.33 44.34 -6.66 43.68 -7 43 C-7.7425 43.495 -8.485 43.99 -9.25 44.5 C-14.18860357 46.95170581 -19.64301654 46.65346581 -25 46 C-29.44545176 44.47918756 -32.4947423 41.96546505 -35 38 C-36.34194126 32.54217178 -36.65499207 27.06862122 -34 22 C-29.42798057 17.29735144 -24.7779307 16.0913793 -18.4375 15.8828125 C-14.95571185 15.87579277 -11.48060585 15.91310554 -8 16 C-7.91773332 12.95613276 -8.02391783 10.92824652 -9 8 C-15.34661939 6.64965545 -21.22426113 7.05191709 -27.08203125 10.07421875 C-29 11 -29 11 -32 11 C-32 7.7 -32 4.4 -32 1 C-22.1862254 -4.68165898 -9.96227389 -6.05549982 0 0 Z M-21.8984375 26.2890625 C-23.72658607 29.1285273 -23.29688623 31.73425143 -23 35 C-21.23863645 37.18331689 -21.23863645 37.18331689 -19.0546875 37.1953125 C-16.02734375 37.09765625 -16.02734375 37.09765625 -13 37 C-13 36.34 -13 35.68 -13 35 C-12.38125 34.87625 -11.7625 34.7525 -11.125 34.625 C-8.80879168 34.12802644 -8.80879168 34.12802644 -7 32 C-6.83322718 28.41656024 -6.83322718 28.41656024 -7 25 C-9.10353495 24.9189794 -11.20795952 24.86080093 -13.3125 24.8125 C-14.48425781 24.77769531 -15.65601563 24.74289062 -16.86328125 24.70703125 C-19.94640937 24.74061222 -19.94640937 24.74061222 -21.8984375 26.2890625 Z " fill="#E2E2E2" transform="translate(326,319)"/>
<path d="M0 0 C3.46346611 3.36725872 4.35075865 6.50218562 4.47705078 11.2434082 C4.47673657 12.8250679 4.46558257 14.40675141 4.4453125 15.98828125 C4.4424826 16.82465622 4.43965271 17.66103119 4.43673706 18.52275085 C4.4255832 21.18198226 4.40048763 23.84087118 4.375 26.5 C4.36496399 28.30793783 4.35583923 30.11588096 4.34765625 31.92382812 C4.32565959 36.34518312 4.29116294 40.76628358 4.25 45.1875 C3.56292969 45.1153125 2.87585938 45.043125 2.16796875 44.96875 C1.26691406 44.8759375 0.36585938 44.783125 -0.5625 44.6875 C-1.90248047 44.54828125 -1.90248047 44.54828125 -3.26953125 44.40625 C-6.75201311 44.09913349 -8.96622786 44.25087713 -12.375 45.25 C-18.42967185 46.7970577 -23.5387093 46.29314535 -29.125 43.5 C-32.77368648 40.28568096 -34.46584776 37.64620621 -35.03125 32.75390625 C-35.20846896 27.78439113 -35.09255197 24.12693625 -31.75 20.1875 C-25.77329995 14.42425352 -18.11011569 14.99466841 -10.34765625 15.1171875 C-9.49042969 15.14039063 -8.63320312 15.16359375 -7.75 15.1875 C-8.00561323 12.8443787 -8.34270772 10.50906597 -8.75 8.1875 C-12.85373667 6.13563166 -18.54994816 6.48674275 -22.859375 7.859375 C-24.50400048 8.60437629 -26.12855036 9.39332058 -27.75 10.1875 C-28.74 10.1875 -29.73 10.1875 -30.75 10.1875 C-30.75 6.8875 -30.75 3.5875 -30.75 0.1875 C-21.28297644 -4.99682243 -9.29208291 -6.12432737 0 0 Z M-22.0625 26.375 C-23.99322293 29.02518525 -23.99322293 29.02518525 -23.6875 31.875 C-22.86696579 34.3302942 -22.86696579 34.3302942 -20.75 36.1875 C-14.93548109 36.76613055 -14.93548109 36.76613055 -9.8125 34.3125 C-7.18429738 31.60465488 -6.76358841 30.86692044 -6.6875 27.0625 C-6.708125 26.11375 -6.72875 25.165 -6.75 24.1875 C-14.81403252 23.44786565 -14.81403252 23.44786565 -22.0625 26.375 Z " fill="#E2E2E1" transform="translate(152.75,319.8125)"/>
<path d="M0 0 C5.445 0.495 5.445 0.495 11 1 C10.36546077 6.30772784 8.66855097 10.83986582 6.69140625 15.7578125 C6.36462387 16.58328583 6.03784149 17.40875916 5.70115662 18.25924683 C5.01211701 19.9966856 4.32025345 21.7330068 3.62573242 23.46826172 C2.56409788 26.12100733 1.51079198 28.77693844 0.45898438 31.43359375 C-0.21306008 33.12519141 -0.88557028 34.81660412 -1.55859375 36.5078125 C-1.87324081 37.29954865 -2.18788788 38.09128479 -2.5120697 38.90701294 C-2.80900223 39.64813324 -3.10593475 40.38925354 -3.41186523 41.15283203 C-3.80038918 42.1249614 -3.80038918 42.1249614 -4.19676208 43.11672974 C-5.04900597 45.11489932 -6.02850617 47.05701234 -7 49 C-10.63 49 -14.26 49 -18 49 C-21.74131491 41.92326755 -24.61492154 34.5853255 -27.5 27.125 C-28.44766005 24.69000428 -29.39557232 22.2551067 -30.34375 19.8203125 C-30.79234375 18.66305664 -31.2409375 17.50580078 -31.703125 16.31347656 C-33.20065603 12.48732987 -34.74775267 8.6829125 -36.31835938 4.88623047 C-37 3 -37 3 -37 1 C-32.71 1 -28.42 1 -24 1 C-19.92107477 10.88193225 -16.26354004 20.81948792 -13 31 C-10.2351077 25.98223249 -8.24496537 20.95049028 -6.5 15.5 C-4.75503463 10.04950972 -2.7648923 5.01776751 0 0 Z " fill="#D9D9D9" transform="translate(278,316)"/>
<path d="M0 0 C4.80217349 1.10819388 8.03719603 1.93986122 11 6 C13.5033025 12.07944893 13.57104001 17.85668723 11.24609375 23.98828125 C8.41564423 29.51890856 4.53970772 31.9633846 -1.0625 34.25 C-9.98879297 36.44207637 -19.57300709 35.54649509 -28 32 C-28.99 31.34 -29.98 30.68 -31 30 C-31.28527337 26.14880946 -31.18082522 22.69007882 -30 19 C-26.53311287 19.44734027 -23.84621905 20.5279466 -20.75 22.0625 C-14.54792058 24.91545653 -8.55498189 24.69160823 -2 23 C-0.6256331 18.87689931 -0.11750344 14.81690468 -2.0625 10.8125 C-2.371875 10.214375 -2.68125 9.61625 -3 9 C-2.625 6.75 -2.625 6.75 -2 5 C-1.34 5.33 -0.68 5.66 0 6 C-0.185625 5.38125 -0.37125 4.7625 -0.5625 4.125 C-1 2 -1 2 0 0 Z " fill="#D5D5D5" transform="translate(100,331)"/>
<path d="M0 0 C0 0.33 0 0.66 0 1 C-0.63808594 1.10957031 -1.27617187 1.21914063 -1.93359375 1.33203125 C-2.75988281 1.49058594 -3.58617187 1.64914062 -4.4375 1.8125 C-5.26121094 1.96332031 -6.08492187 2.11414063 -6.93359375 2.26953125 C-7.61550781 2.51058594 -8.29742187 2.75164062 -9 3 C-9.33 3.99 -9.66 4.98 -10 6 C-10.66 6.66 -11.32 7.32 -12 8 C-9.69 8.33 -7.38 8.66 -5 9 C-4.67 8.34 -4.34 7.68 -4 7 C-3.34 7 -2.68 7 -2 7 C-1.67 6.01 -1.34 5.02 -1 4 C-1 4.66 -1 5.32 -1 6 C-0.01 6.33 0.98 6.66 2 7 C1.30078125 8.97265625 1.30078125 8.97265625 0 11 C-2.5074984 11.49262358 -4.84303341 11.43745381 -7.39453125 11.43359375 C-11.18963613 12.25861655 -12.56757346 14.01844456 -15 17 C-15.77419007 20.46504717 -15.77419007 20.46504717 -15.70703125 24.26953125 C-15.72215256 24.95053391 -15.73727386 25.63153656 -15.75285339 26.33317566 C-15.79560078 28.49329063 -15.80455435 30.65200493 -15.8125 32.8125 C-15.83565489 34.28324002 -15.86102231 35.75394698 -15.88867188 37.22460938 C-15.9513916 40.81637971 -15.98383125 44.40768404 -16 48 C-19.96 48 -23.92 48 -28 48 C-28 32.49 -28 16.98 -28 1 C-24.04 1 -20.08 1 -16 1 C-15.67 1.66 -15.34 2.32 -15 3 C-13.824375 2.505 -12.64875 2.01 -11.4375 1.5 C-7.40779889 -0.02999347 -4.27861686 -0.26741355 0 0 Z " fill="#D3D3D3" transform="translate(195,316)"/>
<path d="M0 0 C1.52775911 2.81261091 2.42423128 5.36765605 3.0625 8.5 C3.65321278 11.3510435 4.2756699 14.1795996 5 17 C5.66 17 6.32 17 7 17 C7.66 18.65 8.32 20.3 9 22 C9.66 22 10.32 22 11 22 C11 22.66 11 23.32 11 24 C12.65 24.66 14.3 25.32 16 26 C16 26.66 16 27.32 16 28 C16.61875 28.144375 17.2375 28.28875 17.875 28.4375 C20 29 20 29 22 30 C23.51089043 37.55445213 23.08989686 45.32880167 23 53 C23.99 53.495 23.99 53.495 25 54 C24.01 54.33 23.02 54.66 22 55 C21.67 54.01 21.34 53.02 21 52 C20.01 52 19.02 52 18 52 C17.34 51.67 16.68 51.34 16 51 C13.41073669 53.58926331 13.62601957 55.02705279 13.375 58.625 C13.30023438 59.62789063 13.22546875 60.63078125 13.1484375 61.6640625 C13.09945312 62.43492187 13.05046875 63.20578125 13 64 C14.98 63.505 14.98 63.505 17 63 C17 63.99 17 64.98 17 66 C17.66 66.66 18.32 67.32 19 68 C16.0625 67.625 16.0625 67.625 13 67 C11.3607369 63.7214738 11.94795983 60.09799943 12 56.5 C12.00385841 54.06051739 12.00007008 51.6211212 11.99609375 49.18164062 C11.99930782 47.38658514 12.02748114 45.59159174 12.0625 43.796875 C11.94907807 39.08394707 11.94907807 39.08394707 9.36328125 35.31640625 C7.97985554 34.30189406 6.56375709 33.33068861 5.12109375 32.40234375 C-1.89773209 27.76190456 -6.13382269 19.71428575 -9 12 C-9.1640625 8.62890625 -9.1640625 8.62890625 -9 6 C-8.01 6.33 -7.02 6.66 -6 7 C-6.33 8.98 -6.66 10.96 -7 13 C-4.69 12.34 -2.38 11.68 0 11 C0.2502157 8.08365871 0.2502157 8.08365871 0 5 C-0.99 4.34 -1.98 3.68 -3 3 C-2.01 3 -1.02 3 0 3 C0 2.01 0 1.02 0 0 Z " fill="#D0D0D0" transform="translate(165,218)"/>
<path d="M0 0 C-0.33 0.66 -0.66 1.32 -1 2 C-0.60061233 4.09821215 -0.60061233 4.09821215 0 6 C0.66 6 1.32 6 2 6 C2.02698189 7.62490954 2.04638757 9.24994633 2.0625 10.875 C2.07410156 11.77992188 2.08570313 12.68484375 2.09765625 13.6171875 C2 16 2 16 1 18 C0.34 17.67 -0.32 17.34 -1 17 C-0.34 14.36 0.32 11.72 1 9 C-0.93816735 9.1141866 -2.87555099 9.24173423 -4.8125 9.375 C-5.89144531 9.44460938 -6.97039062 9.51421875 -8.08203125 9.5859375 C-11.18626186 9.81195733 -11.18626186 9.81195733 -14 12 C-14.38024775 16.65145592 -14.38024775 16.65145592 -13 21 C-13.804375 21.391875 -14.60875 21.78375 -15.4375 22.1875 C-18.23064738 23.76948191 -18.23064738 23.76948191 -18.8125 26.6875 C-18.874375 27.450625 -18.93625 28.21375 -19 29 C-24.75 25.375 -24.75 25.375 -27 22 C-27.70324405 15.97430888 -28.28934826 10.05489879 -25 4.8125 C-16.55433173 -0.29009124 -9.75239615 -0.36982401 0 0 Z " fill="#CFCFCF" transform="translate(364,335)"/>
<path d="M0 0 C0.66 0.66 1.32 1.32 2 2 C1.84415433 4.72876947 1.58087131 7.30528874 1.1875 10 C1.09146484 10.73734375 0.99542969 11.4746875 0.89648438 12.234375 C0.15472274 17.69055451 0.15472274 17.69055451 -1 20 C-1.66 19.67 -2.32 19.34 -3 19 C-2.34 16.36 -1.68 13.72 -1 11 C-2.91752953 11.06029967 -4.83417426 11.14916707 -6.75 11.25 C-8.35101563 11.31960938 -8.35101563 11.31960938 -9.984375 11.390625 C-13.55530411 12.11221171 -14.8158606 13.12865576 -17 16 C-16.938125 17.2065625 -16.938125 17.2065625 -16.875 18.4375 C-17 21 -17 21 -19.6875 23.875 C-23 26 -23 26 -25.875 25.8125 C-26.57625 25.544375 -27.2775 25.27625 -28 25 C-29.73984917 19.78045248 -29.91699243 14.1549322 -27.75 9.0625 C-24.18273806 4.858227 -20.46971539 2.81483774 -15 2 C-10.66087037 1.84285862 -6.33973193 1.88253357 -2 2 C-2 2.66 -2 3.32 -2 4 C-1.34 4 -0.68 4 0 4 C0 2.68 0 1.36 0 0 Z " fill="#D7D7D7" transform="translate(147,333)"/>
<path d="M0 0 C0 0.66 0 1.32 0 2 C-2.046875 3.4375 -2.046875 3.4375 -4.75 5 C-5.63171875 5.515625 -6.5134375 6.03125 -7.421875 6.5625 C-9.5901988 7.77150479 -11.76767294 8.91513077 -14 10 C-14 10.66 -14 11.32 -14 12 C-14.66 12 -15.32 12 -16 12 C-16.27714844 12.57878906 -16.55429687 13.15757812 -16.83984375 13.75390625 C-17.96094501 15.92438848 -19.21305513 17.90326221 -20.5625 19.9375 C-22.47394722 22.94521841 -23.66133427 25.3875656 -24 29 C-25.32 27.68 -26.64 26.36 -28 25 C-28.12375 25.61875 -28.2475 26.2375 -28.375 26.875 C-29 29 -29 29 -31 31 C-31.66 31 -32.32 31 -33 31 C-33.66 31.33 -34.32 31.66 -35 32 C-35.47001033 35.27555608 -35.47001033 35.27555608 -35.625 39.0625 C-35.69976562 40.35285156 -35.77453125 41.64320313 -35.8515625 42.97265625 C-35.90054687 43.97167969 -35.94953125 44.97070312 -36 46 C-36.33 46 -36.66 46 -37 46 C-37.54422554 35.0701371 -37.30168878 24.45253316 -31 15 C-30.34 15 -29.68 15 -29 15 C-28.731875 14.401875 -28.46375 13.80375 -28.1875 13.1875 C-24.44827665 6.299457 -17.15943387 3.24451705 -10 1 C-6.57849487 0.21707015 -3.51224926 -0.10034998 0 0 Z " fill="#CFCFCF" transform="translate(301,136)"/>
<path d="M0 0 C8.25199871 0.54111467 16.03970592 2.35980395 23 7 C23 7.66 23 8.32 23 9 C23.61875 9.2475 24.2375 9.495 24.875 9.75 C27.35068687 11.20628639 27.95125002 12.37812506 29 15 C29.66 15 30.32 15 31 15 C35.59225513 23.261959 35.59225513 23.261959 35 28 C34.34 27.34 33.68 26.68 33 26 C32.01 26.66 31.02 27.32 30 28 C28.68 28 27.36 28 26 28 C26.33 28.99 26.66 29.98 27 31 C27.07973476 32.33525717 27.10771338 33.67412083 27.09765625 35.01171875 C27.09443359 35.76904297 27.09121094 36.52636719 27.08789062 37.30664062 C27.07951172 38.09232422 27.07113281 38.87800781 27.0625 39.6875 C27.05798828 40.48478516 27.05347656 41.28207031 27.04882812 42.10351562 C27.0370585 44.06904257 27.01912348 46.03453085 27 48 C26.67 48 26.34 48 26 48 C25.96261719 46.96101563 25.92523438 45.92203125 25.88671875 44.8515625 C25.4154488 34.09627854 24.59941266 24.94113973 18 16 C17.67 15.2575 17.34 14.515 17 13.75 C15.70254556 11.47945473 14.34723946 11.06692703 12 10 C11 9 10 8 9 7 C8.01 6.67 7.02 6.34 6 6 C6 5.34 6 4.68 6 4 C4.35 3.67 2.7 3.34 1 3 C0.67 2.01 0.34 1.02 0 0 Z " fill="#D2D2D2" transform="translate(199,136)"/>
<path d="M0 0 C1.13076099 4.52304394 1.13076099 4.52304394 0.5234375 6.73828125 C-0.44883186 10.93935557 0.04550439 15.30186417 0.16015625 19.58984375 C0.00479007 22.89800655 -0.56992442 25.04451046 -2 28 C-4.33333333 28 -6.66666667 28 -9 28 C-12.51323297 20.20978777 -13.8930189 13.87101216 -12.3125 5.25 C-11 2 -11 2 -8.5625 0.0625 C-5.15732056 -1.34940367 -3.48914478 -1.16304826 0 0 Z " fill="#E4E4E4" transform="translate(396,328)"/>
<path d="M0 0 C4.29 0 8.58 0 13 0 C14.00858422 2.41339796 15.00702673 4.83018675 16 7.25 C16.28617187 7.93191406 16.57234375 8.61382812 16.8671875 9.31640625 C18.29345494 12.81415735 19 15.16900189 19 19 C18.01 19 17.02 19 16 19 C16 19.66 16 20.32 16 21 C16.66 21.33 17.32 21.66 18 22 C17.34 22.66 16.68 23.32 16 24 C15.34 23.67 14.68 23.34 14 23 C13.34 25.31 12.68 27.62 12 30 C9.85687288 26.78530931 8.51762844 23.51203103 7.125 19.9375 C6.59387424 18.58849274 6.06262384 17.23953456 5.53125 15.890625 C5.14259766 14.8996582 5.14259766 14.8996582 4.74609375 13.88867188 C3.41950675 10.53053148 2.03965067 7.19378637 0.6640625 3.85546875 C0 2 0 2 0 0 Z " fill="#D3D3D3" transform="translate(241,317)"/>
<path d="M0 0 C4.80217349 1.10819388 8.03719603 1.93986122 11 6 C13.25581681 11.47841225 13.42814697 16.31737325 12 22 C10.85091558 24.53542919 9.54057837 26.66428441 8 29 C5 29 5 29 3.4375 27.625 C2.963125 27.08875 2.48875 26.5525 2 26 C1.34 25.34 0.68 24.68 0 24 C0.0234375 21.1796875 0.0234375 21.1796875 0.375 17.875 C0.48585938 16.77929688 0.59671875 15.68359375 0.7109375 14.5546875 C0.80632812 13.71164062 0.90171875 12.86859375 1 12 C0.34 12 -0.32 12 -1 12 C-3 9 -3 9 -2.625 6.8125 C-2.41875 6.214375 -2.2125 5.61625 -2 5 C-1.34 5.33 -0.68 5.66 0 6 C-0.185625 5.38125 -0.37125 4.7625 -0.5625 4.125 C-1 2 -1 2 0 0 Z " fill="#E4E4E4" transform="translate(100,331)"/>
<path d="M0 0 C0 0.99 0 1.98 0 3 C-1.98 3.99 -1.98 3.99 -4 5 C-4 7.64 -4 10.28 -4 13 C-4.680625 12.01 -4.680625 12.01 -5.375 11 C-9.36266814 7.96177665 -13.15092675 8.3509702 -18 9 C-20.48424486 9.80807221 -22.64261818 10.845364 -25 12 C-25.99 12 -26.98 12 -28 12 C-28 8.7 -28 5.4 -28 2 C-19.42364701 -2.69657426 -9.16534868 -3.85909418 0 0 Z " fill="#D4D4D4" transform="translate(150,318)"/>
<path d="M0 0 C2.475 0.99 2.475 0.99 5 2 C6.24911667 9.65083958 6.09053426 17.27440986 6 25 C6.66 25.33 7.32 25.66 8 26 C7.01 26.33 6.02 26.66 5 27 C4.67 26.01 4.34 25.02 4 24 C3.01 24 2.02 24 1 24 C0.34 23.67 -0.32 23.34 -1 23 C-3.58926331 25.58926331 -3.37398043 27.02705279 -3.625 30.625 C-3.69976562 31.62789063 -3.77453125 32.63078125 -3.8515625 33.6640625 C-3.90054688 34.43492187 -3.94953125 35.20578125 -4 36 C-2.02 35.505 -2.02 35.505 0 35 C0 35.99 0 36.98 0 38 C0.66 38.66 1.32 39.32 2 40 C-0.9375 39.625 -0.9375 39.625 -4 39 C-5.63891222 35.72217556 -5.05385565 32.09748522 -5 28.5 C-4.06672724 17.20698406 -4.06672724 17.20698406 -7.54296875 7.24609375 C-8.02378906 6.83488281 -8.50460938 6.42367187 -9 6 C-5.535 5.505 -5.535 5.505 -2 5 C-1.67 4.01 -1.34 3.02 -1 2 C-0.67 1.34 -0.34 0.68 0 0 Z " fill="#D1D1D1" transform="translate(182,246)"/>
<path d="M0 0 C-1.20381448 2.49361571 -2.45428722 4.68143083 -4 7 C-3.34 8.32 -2.68 9.64 -2 11 C-2.969375 10.79375 -3.93875 10.5875 -4.9375 10.375 C-10.14284459 9.62382222 -15.41411671 10.66582007 -20.08203125 13.07421875 C-22 14 -22 14 -25 14 C-25 10.7 -25 7.4 -25 4 C-16.85385994 -0.71618635 -9.13833013 -1.47392421 0 0 Z " fill="#D6D6D6" transform="translate(319,316)"/>
<path d="M0 0 C0.33 0 0.66 0 1 0 C1.144375 1.134375 1.28875 2.26875 1.4375 3.4375 C1.61171478 6.80777201 1.61171478 6.80777201 3 8 C4.34747084 8.23075082 5.70377565 8.41153063 7.0625 8.5625 C8.361875 8.706875 9.66125 8.85125 11 9 C11 8.34 11 7.68 11 7 C12.32 6.67 13.64 6.34 15 6 C15 8 15 8 13.5 9.625 C13.005 10.07875 12.51 10.5325 12 11 C13.32 11.33 14.64 11.66 16 12 C16 13.32 16 14.64 16 16 C10.01825242 18.73889541 3.08136252 19.38666257 -3.23046875 17.2421875 C-6.59331478 15.42094466 -9.01901497 13.26279887 -11 10 C-10.67 9.34 -10.34 8.68 -10 8 C-8.88625 8.0309375 -8.88625 8.0309375 -7.75 8.0625 C-5.29537721 8.00671312 -3.33890739 7.6930096 -1 7 C-0.67 4.69 -0.34 2.38 0 0 Z " fill="#D1D1D1" transform="translate(302,347)"/>
<path d="M0 0 C0.9075 0.28875 1.815 0.5775 2.75 0.875 C7.17142481 2.1679729 11.67122155 2.73701646 16.23046875 3.33984375 C19.24216615 4.05772367 20.84371464 4.78195945 23 7 C23 8.32 23 9.64 23 11 C19.45849107 11.08761663 15.91726367 11.14059739 12.375 11.1875 C11.37597656 11.21263672 10.37695312 11.23777344 9.34765625 11.26367188 C3.69194968 11.31985439 -0.21096571 11.11368953 -5 8 C-4.0409375 7.13375 -4.0409375 7.13375 -3.0625 6.25 C-1.01776132 4.01937599 -0.41794801 2.92563609 0 0 Z " fill="#CACACA" transform="translate(273,232)"/>
<path d="M0 0 C2.4375 1.1875 2.4375 1.1875 5 3 C5.8125 5.6875 5.8125 5.6875 6 8 C5.34 8 4.68 8 4 8 C4 10.31 4 12.62 4 15 C-3.42857143 17.42857143 -3.42857143 17.42857143 -7 16 C-8.2 8.8 -8.2 8.8 -7.4375 5.75 C-5.34821176 3.20651867 -2.79170314 1.69929756 0 0 Z " fill="#EBEBEB" transform="translate(298,339)"/>
<path d="M0 0 C0.99 0.99 1.98 1.98 3 3 C2 6 2 6 0 7 C0.66 7.66 1.32 8.32 2 9 C1.9765625 11.1640625 1.9765625 11.1640625 1.625 13.625 C1.45871094 14.85089844 1.45871094 14.85089844 1.2890625 16.1015625 C1.14597656 17.04128906 1.14597656 17.04128906 1 18 C-0.32 16.68 -1.64 15.36 -3 14 C-3.12375 14.61875 -3.2475 15.2375 -3.375 15.875 C-4 18 -4 18 -6 20 C-6.66 20 -7.32 20 -8 20 C-8.66 20.33 -9.32 20.66 -10 21 C-10.47001033 24.27555608 -10.47001033 24.27555608 -10.625 28.0625 C-10.69976562 29.35285156 -10.77453125 30.64320313 -10.8515625 31.97265625 C-10.90054687 32.97167969 -10.94953125 33.97070312 -11 35 C-11.33 35 -11.66 35 -12 35 C-12.54422554 24.0701371 -12.30168878 13.45253316 -6 4 C-5.34 4 -4.68 4 -4 4 C-4 3.34 -4 2.68 -4 2 C-2.68 1.34 -1.36 0.68 0 0 Z " fill="#D3D3D3" transform="translate(276,147)"/>
<path d="M0 0 C1.32 0.66 2.64 1.32 4 2 C3.67 6.29 3.34 10.58 3 15 C2.34 15 1.68 15 1 15 C0.67 15.99 0.34 16.98 0 18 C-0.66 18.28875 -1.32 18.5775 -2 18.875 C-4.29150599 19.8553382 -4.29150599 19.8553382 -4.75 22.625 C-4.8325 23.40875 -4.915 24.1925 -5 25 C-5.99 25 -6.98 25 -8 25 C-8.33 25.66 -8.66 26.32 -9 27 C-9 25.35 -9 23.7 -9 22 C-8.34 22 -7.68 22 -7 22 C-7 17.38 -7 12.76 -7 8 C-6.01 7.67 -5.02 7.34 -4 7 C-3.67 6.34 -3.34 5.68 -3 5 C-2.34 5 -1.68 5 -1 5 C-0.67 3.35 -0.34 1.7 0 0 Z " fill="#EAEAEA" transform="translate(272,160)"/>
<path d="M0 0 C0 0.33 0 0.66 0 1 C-1.65 1 -3.3 1 -5 1 C-5.6814823 2.89179203 -5.6814823 2.89179203 -6 5 C-3.64046906 7.35953094 -2.22104383 7.49141413 1 8 C1 8.33 1 8.66 1 9 C0.08476562 9.06058594 -0.83046875 9.12117188 -1.7734375 9.18359375 C-2.96195312 9.26738281 -4.15046875 9.35117187 -5.375 9.4375 C-7.15003906 9.55931641 -7.15003906 9.55931641 -8.9609375 9.68359375 C-11.91518901 9.81084936 -11.91518901 9.81084936 -14 11 C-14.061875 10.38125 -14.12375 9.7625 -14.1875 9.125 C-14.84505229 6.81373819 -14.84505229 6.81373819 -17.125 5.5 C-21.47136621 4.74411022 -23.3907384 6.5938256 -27 9 C-25.59335278 5.60060256 -24.16905621 3.88430369 -21 2 C-14.23278457 -0.7951542 -7.21525044 -0.18013108 0 0 Z " fill="#C2C2C2" transform="translate(318,335)"/>
<path d="M0 0 C7.33991454 0.48130587 16.13494565 1.53306284 21.8203125 6.6328125 C22.40425781 7.30957031 22.40425781 7.30957031 23 8 C22.01 8 21.02 8 20 8 C20 8.99 20 9.98 20 11 C19.34 11 18.68 11 18 11 C18.33 11.66 18.66 12.32 19 13 C19.66 13 20.32 13 21 13 C21 14.65 21 16.3 21 18 C19.2925002 16.71937515 17.62626404 15.38232443 16 14 C16 13.34 16 12.68 16 12 C15.401875 11.731875 14.80375 11.46375 14.1875 11.1875 C12.01273336 10.00691239 10.73183488 8.73183488 9 7 C8.01 6.67 7.02 6.34 6 6 C6 5.34 6 4.68 6 4 C4.35 3.67 2.7 3.34 1 3 C0.67 2.01 0.34 1.02 0 0 Z " fill="#CECECE" transform="translate(199,136)"/>
<path d="M0 0 C-0.66 2.31 -1.32 4.62 -2 7 C0.31 7.33 2.62 7.66 5 8 C5 8.33 5 8.66 5 9 C3.08333333 9.47916667 1.16666667 9.95833333 -0.75 10.4375 C-1.81734375 10.70433594 -2.8846875 10.97117187 -3.984375 11.24609375 C-4.97953125 11.49488281 -5.9746875 11.74367188 -7 12 C-8.15242188 12.32677734 -8.15242188 12.32677734 -9.328125 12.66015625 C-9.87984375 12.77230469 -10.4315625 12.88445312 -11 13 C-12 12 -12 12 -12.09765625 9.93359375 C-12.08605469 9.10988281 -12.07445312 8.28617187 -12.0625 7.4375 C-12.05347656 6.61121094 -12.04445313 5.78492188 -12.03515625 4.93359375 C-12.02355469 4.29550781 -12.01195312 3.65742188 -12 3 C-7.77050005 0.58314288 -4.87664009 -0.34833144 0 0 Z " fill="#CCCCCC" transform="translate(352,317)"/>
<path d="M0 0 C0.89762054 -0.00014603 1.79524109 -0.00029205 2.72006226 -0.0004425 C5.6960489 0.00025586 8.67197347 0.00804472 11.64794922 0.01586914 C13.70775315 0.01773359 15.76755753 0.01915737 17.82736206 0.02015686 C23.25581074 0.02397991 28.68423277 0.03380841 34.1126709 0.04486084 C39.64916626 0.05507951 45.18566591 0.05965546 50.72216797 0.06469727 C61.59066927 0.07543084 72.45915078 0.09250474 83.32763672 0.11352539 C83.32763672 0.44352539 83.32763672 0.77352539 83.32763672 1.11352539 C81.66846222 1.12565567 81.66846222 1.12565567 79.97576904 1.13803101 C69.55788149 1.21547456 59.14012482 1.30320939 48.72240829 1.40105247 C43.36639757 1.45102442 38.01040665 1.49735448 32.65429688 1.53540039 C27.48654381 1.5722417 22.31895613 1.61859869 17.1513443 1.6715889 C15.17859037 1.69013895 13.20580098 1.70524465 11.23299408 1.71686935 C8.47237671 1.73372123 5.7121386 1.76275387 2.95166016 1.79467773 C2.13382553 1.79683792 1.31599091 1.79899811 0.47337341 1.80122375 C-3.36725327 1.85805983 -6.41905723 1.93113153 -9.67236328 4.11352539 C-10.00236328 3.12352539 -10.33236328 2.13352539 -10.67236328 1.11352539 C-7.35484735 -0.54523258 -3.64639275 -0.01536764 0 0 Z " fill="#959595" transform="translate(224.67236328125,260.886474609375)"/>
<path d="M0 0 C1.35158203 0.15275391 1.35158203 0.15275391 2.73046875 0.30859375 C3.41753906 0.39238281 4.10460937 0.47617187 4.8125 0.5625 C3.8225 0.8925 2.8325 1.2225 1.8125 1.5625 C1.4825 2.5525 1.1525 3.5425 0.8125 4.5625 C-0.52083333 4.89583333 -1.85416667 5.22916667 -3.1875 5.5625 C-3.5175 6.5525 -3.8475 7.5425 -4.1875 8.5625 C-6.4975 8.2325 -8.8075 7.9025 -11.1875 7.5625 C-11.1875 4.01426068 -10.51015612 3.14322903 -8.1875 0.5625 C-4.98734144 -0.50421952 -3.30205706 -0.38595472 0 0 Z " fill="#F0F0F0" transform="translate(194.1875,317.4375)"/>
<path d="M0 0 C0 0.66 0 1.32 0 2 C-2.08203125 3.4375 -2.08203125 3.4375 -4.8125 5 C-7.60144856 6.60978272 -10.31907813 8.21271876 -13 10 C-14.0625 8.125 -14.0625 8.125 -15 6 C-14.67 5.34 -14.34 4.68 -14 4 C-14.66 3.67 -15.32 3.34 -16 3 C-14.27318563 2.49193553 -12.54342021 1.99389533 -10.8125 1.5 C-9.84957031 1.2215625 -8.88664062 0.943125 -7.89453125 0.65625 C-5.14654124 0.03322392 -2.80401584 -0.12302812 0 0 Z " fill="#DADADA" transform="translate(301,136)"/>
<path d="M0 0 C2.4597755 2.4597755 2.79965471 4.5512156 3.171875 7.95703125 C3 10 3 10 0.6875 13 C-2 15 -2 15 -4 15 C-4 17.31 -4 19.62 -4 22 C-4.33 22 -4.66 22 -5 22 C-5.59207589 18.98813569 -6.04796436 16.0750481 -6 13 C-4.1875 10.6875 -4.1875 10.6875 -2 9 C-0.63979849 7.03241727 -0.63979849 7.03241727 0 5 C-0.33 4.01 -0.66 3.02 -1 2 C-0.67 1.34 -0.34 0.68 0 0 Z " fill="#AEAEAE" transform="translate(243,192)"/>
<path d="M0 0 C2.97 0.495 2.97 0.495 6 1 C6.33 2.32 6.66 3.64 7 5 C5.35 6.32 3.7 7.64 2 9 C-0.475 8.01 -0.475 8.01 -3 7 C-2.01 4.69 -1.02 2.38 0 0 Z " fill="#EEEEEE" transform="translate(175,244)"/>
<path d="M0 0 C0.66 0 1.32 0 2 0 C2.33 0.66 2.66 1.32 3 2 C3.99 1.34 4.98 0.68 6 0 C6 2.31 6 4.62 6 7 C5.38125 7.144375 4.7625 7.28875 4.125 7.4375 C1.96741678 7.93152225 1.96741678 7.93152225 0 9 C-0.47001033 12.27555608 -0.47001033 12.27555608 -0.625 16.0625 C-0.69976562 17.35285156 -0.77453125 18.64320313 -0.8515625 19.97265625 C-0.90054687 20.97167969 -0.94953125 21.97070312 -1 23 C-1.33 23 -1.66 23 -2 23 C-2.3690205 7.25512528 -2.3690205 7.25512528 0 0 Z " fill="#BABABA" transform="translate(266,159)"/>
<path d="M0 0 C0.33 0.66 0.66 1.32 1 2 C0.34 2 -0.32 2 -1 2 C-1.33 2.99 -1.66 3.98 -2 5 C-3.11375 5.12375 -4.2275 5.2475 -5.375 5.375 C-9.03103677 5.6465813 -9.03103677 5.6465813 -11 8 C-10.34 8.66 -9.68 9.32 -9 10 C-10.65 10 -12.3 10 -14 10 C-14.33 8.35 -14.66 6.7 -15 5 C-11.47352614 2.64901743 -9.26934328 2.61795622 -5.15625 2.34375 C-2.70936243 2.10725762 -2.70936243 2.10725762 0 0 Z " fill="#C4C4C4" transform="translate(223,232)"/>
<path d="M0 0 C0.99 0.99 1.98 1.98 3 3 C2.67 3.99 2.34 4.98 2 6 C0.0625 6.5625 0.0625 6.5625 -2 7 C-2.66 7.66 -3.32 8.32 -4 9 C-4.99 9.33 -5.98 9.66 -7 10 C-6.67 8.02 -6.34 6.04 -6 4 C-5.34 4 -4.68 4 -4 4 C-4 3.34 -4 2.68 -4 2 C-2.68 1.34 -1.36 0.68 0 0 Z " fill="#E5E5E5" transform="translate(276,147)"/>
<path d="M0 0 C1.41750563 0.11509661 2.83401169 0.24253658 4.25 0.375 C5.03890625 0.44460937 5.8278125 0.51421875 6.640625 0.5859375 C9.085877 1.01507113 10.84836903 1.78600638 13 3 C11.68 4.32 10.36 5.64 9 7 C8.01 6.67 7.02 6.34 6 6 C6 5.34 6 4.68 6 4 C4.35 3.67 2.7 3.34 1 3 C0.67 2.01 0.34 1.02 0 0 Z " fill="#AFAFAF" transform="translate(199,136)"/>
<path d="M0 0 C2.31 0 4.62 0 7 0 C6.6875 2.375 6.6875 2.375 6 5 C5.01 5.66 4.02 6.32 3 7 C0 6 0 6 -2 4 C-1.34 2.68 -0.68 1.36 0 0 Z " fill="#ECEBEC" transform="translate(313,336)"/>
<path d="M0 0 C2.375 0.3125 2.375 0.3125 5 1 C5.66 1.99 6.32 2.98 7 4 C6.360625 4.226875 5.72125 4.45375 5.0625 4.6875 C2.72806339 5.85250896 2.72806339 5.85250896 2.25 8.625 C2.1675 9.40875 2.085 10.1925 2 11 C1.67 11 1.34 11 1 11 C1 9.02 1 7.04 1 5 C0.01 5.33 -0.98 5.66 -2 6 C-2 5.01 -2 4.02 -2 3 C-1.34 3 -0.68 3 0 3 C0 2.01 0 1.02 0 0 Z " fill="#E1E1E1" transform="translate(219,144)"/>
<path d="M0 0 C0.33 0 0.66 0 1 0 C1.06058594 0.74765625 1.12117188 1.4953125 1.18359375 2.265625 C1.26738281 3.25046875 1.35117187 4.2353125 1.4375 5.25 C1.51871094 6.22453125 1.59992188 7.1990625 1.68359375 8.203125 C1.95074584 10.56461753 2.35371968 12.71901065 3 15 C3.66 15 4.32 15 5 15 C4.67 15.99 4.34 16.98 4 18 C2.35 17.67 0.7 17.34 -1 17 C-0.83628906 16.30519531 -0.67257812 15.61039062 -0.50390625 14.89453125 C0.04095996 11.7647184 0.09738483 8.86201917 0.0625 5.6875 C0.05347656 4.61886719 0.04445313 3.55023438 0.03515625 2.44921875 C0.02355469 1.64097656 0.01195312 0.83273437 0 0 Z " fill="#9D9D9D" transform="translate(395,337)"/>
<path d="M0 0 C-1 3 -1 3 -2 5 C-4.31 4.67 -6.62 4.34 -9 4 C-8.1875 2.0625 -8.1875 2.0625 -7 0 C-3.86650268 -1.04449911 -3.01031744 -0.93423645 0 0 Z " fill="#ECECEC" transform="translate(220,237)"/>
<path d="M0 0 C0.33 0 0.66 0 1 0 C1 4.95 1 9.9 1 15 C2.32 14.67 3.64 14.34 5 14 C5 14.99 5 15.98 5 17 C5.66 17.66 6.32 18.32 7 19 C4.0625 18.625 4.0625 18.625 1 18 C-0.59412284 14.81175432 -0.10174735 11.37103338 -0.0625 7.875 C-0.05798828 7.12089844 -0.05347656 6.36679687 -0.04882812 5.58984375 C-0.03703499 3.72652873 -0.01909942 1.86325445 0 0 Z " fill="#888888" transform="translate(177,267)"/>
<path d="M0 0 C1.32 0 2.64 0 4 0 C4.33 1.32 4.66 2.64 5 4 C-2.42857143 6.42857143 -2.42857143 6.42857143 -6 5 C-6 4.34 -6 3.68 -6 3 C-4.35 3 -2.7 3 -1 3 C-0.67 2.01 -0.34 1.02 0 0 Z " fill="#EFEFEF" transform="translate(297,350)"/>
<path d="M0 0 C0.33 0.66 0.66 1.32 1 2 C1.99 2.33 2.98 2.66 4 3 C3.34 4.32 2.68 5.64 2 7 C-0.97 7 -3.94 7 -7 7 C-5.68 6.34 -4.36 5.68 -3 5 C-2.67 4.34 -2.34 3.68 -2 3 C-1.34 3 -0.68 3 0 3 C0 2.01 0 1.02 0 0 Z " fill="#C9C9C9" transform="translate(193,320)"/>
<path d="M0 0 C4.75 0.75 4.75 0.75 7 3 C5.8125 4.5 5.8125 4.5 4 6 C1.3125 6.1875 1.3125 6.1875 -1 6 C-0.67 4.02 -0.34 2.04 0 0 Z " fill="#ACACAC" transform="translate(70,350)"/>
<path d="M0 0 C2.475 0.495 2.475 0.495 5 1 C6.46726798 4.81489674 5.43336419 7.29011622 4 11 C2.03698408 7.49461443 1.04097612 3.86648272 0 0 Z " fill="#B9B9B9" transform="translate(330,145)"/>
<path d="M0 0 C2.66666667 0.66666667 5.33333333 1.33333333 8 2 C7 5 7 5 4.9375 6.1875 C4.298125 6.455625 3.65875 6.72375 3 7 C2.01 4.69 1.02 2.38 0 0 Z " fill="#C8C7C7" transform="translate(200,319)"/>
<path d="M0 0 C2.0625 0.4375 2.0625 0.4375 4 1 C3.67 1.99 3.34 2.98 3 4 C2.01 4 1.02 4 0 4 C0 5.98 0 7.96 0 10 C0.66 10.33 1.32 10.66 2 11 C1.01 11 0.02 11 -1 11 C-1.02688151 9.35425434 -1.04634123 7.70838587 -1.0625 6.0625 C-1.07410156 5.14597656 -1.08570313 4.22945313 -1.09765625 3.28515625 C-1 1 -1 1 0 0 Z " fill="#B1B1B1" transform="translate(295,319)"/>
<path d="M0 0 C-3.63 2.31 -7.26 4.62 -11 7 C-11 6.01 -11 5.02 -11 4 C-4.87769784 -1.62589928 -4.87769784 -1.62589928 0 0 Z " fill="#919191" transform="translate(303,337)"/>
<path d="M0 0 C0.33 0.66 0.66 1.32 1 2 C0.34 2 -0.32 2 -1 2 C-1.33 2.99 -1.66 3.98 -2 5 C-4.97 4.67 -7.94 4.34 -11 4 C-11.33 4.66 -11.66 5.32 -12 6 C-12.66 5.34 -13.32 4.68 -14 4 C-11.1554777 2.57773885 -8.33587776 2.62238263 -5.19140625 2.37890625 C-2.71626355 2.1032176 -2.71626355 2.1032176 0 0 Z " fill="#AEAEAE" transform="translate(223,232)"/>
<path d="M0 0 C1.18851563 0.00902344 2.37703125 0.01804687 3.6015625 0.02734375 C4.51679688 0.03894531 5.43203125 0.05054688 6.375 0.0625 C6.375 0.3925 6.375 0.7225 6.375 1.0625 C5.69953125 1.11148437 5.0240625 1.16046875 4.328125 1.2109375 C3.43609375 1.28570312 2.5440625 1.36046875 1.625 1.4375 C0.74328125 1.50710938 -0.1384375 1.57671875 -1.046875 1.6484375 C-3.61566382 2.06100055 -5.38341015 2.77410957 -7.625 4.0625 C-7.955 3.0725 -8.285 2.0825 -8.625 1.0625 C-5.74084117 -0.37957941 -3.20778472 -0.03144887 0 0 Z " fill="#9E9E9E" transform="translate(222.625,260.9375)"/>
<path d="M0 0 C0.99 0.66 1.98 1.32 3 2 C0.03 4.475 0.03 4.475 -3 7 C-3 3 -3 3 -1.5 1.25 C-1.005 0.8375 -0.51 0.425 0 0 Z " fill="#BABABA" transform="translate(333,243)"/>
<path d="M0 0 C2.46800047 1.15173355 4.04783565 2.04783565 6 4 C5.67 4.99 5.34 5.98 5 7 C5 6.34 5 5.68 5 5 C3.68 5.33 2.36 5.66 1 6 C0.67 4.02 0.34 2.04 0 0 Z " fill="#BABABA" transform="translate(369,319)"/>
<path d="M0 0 C2.0625 2.25 2.0625 2.25 4 5 C3.75 7.3125 3.75 7.3125 3 9 C2.01 8.01 1.02 7.02 0 6 C0.33 5.34 0.66 4.68 1 4 C0.34 3.67 -0.32 3.34 -1 3 C-0.67 2.01 -0.34 1.02 0 0 Z " fill="#BABABA" transform="translate(325,319)"/>
<path d="M0 0 C0.99 0.33 1.98 0.66 3 1 C0.75 3.5625 0.75 3.5625 -2 6 C-4.3125 5.8125 -4.3125 5.8125 -6 5 C-5.34 4.34 -4.68 3.68 -4 3 C-2.68 3 -1.36 3 0 3 C0 2.01 0 1.02 0 0 Z " fill="#989898" transform="translate(326,250)"/>
<path d="M0 0 C0.99 0.33 1.98 0.66 3 1 C1.25 5.875 1.25 5.875 -1 7 C-1.66 6.67 -2.32 6.34 -3 6 C-2 4 -1 2 0 0 Z " fill="#C7C7C7" transform="translate(337,236)"/>
<path d="M0 0 C2.86724686 0.57344937 3.8614515 0.8614515 6 3 C6.66 3 7.32 3 8 3 C8 4.65 8 6.3 8 8 C6.2925002 6.71937515 4.62626404 5.38232443 3 4 C3 3.34 3 2.68 3 2 C2.01 1.67 1.02 1.34 0 1 C0 0.67 0 0.34 0 0 Z " fill="#8F8F8F" transform="translate(212,146)"/>
<path d="M0 0 C0.66 0.33 1.32 0.66 2 1 C1.67 2.32 1.34 3.64 1 5 C1.66 5.33 2.32 5.66 3 6 C2.01 6.66 1.02 7.32 0 8 C-1.0625 6.125 -1.0625 6.125 -2 4 C-1.67 3.34 -1.34 2.68 -1 2 C-1.66 1.67 -2.32 1.34 -3 1 C-2.01 0.67 -1.02 0.34 0 0 Z " fill="#AFAFAF" transform="translate(288,138)"/>
<path d="M0 0 C2.25 0.25 2.25 0.25 4 1 C1.03 3.475 1.03 3.475 -2 6 C-2.66 5.34 -3.32 4.68 -4 4 C-2.25 1.9375 -2.25 1.9375 0 0 Z " fill="#F1F1F1" transform="translate(350,336)"/>
<path d="M0 0 C0 0.66 0 1.32 0 2 C-3.75 3.125 -3.75 3.125 -6 2 C-6.33 2.66 -6.66 3.32 -7 4 C-7.99 3.67 -8.98 3.34 -10 3 C-6.27034861 0.96564469 -4.33094958 0 0 0 Z " fill="#A6A6A6" transform="translate(132,336)"/>
<path d="M0 0 C0 0.66 0 1.32 0 2 C-1.65 2.66 -3.3 3.32 -5 4 C-5 3.34 -5 2.68 -5 2 C-6.65 2 -8.3 2 -10 2 C-10 1.67 -10 1.34 -10 1 C-6.59437148 0.22157062 -3.49234244 -0.09978121 0 0 Z " fill="#818181" transform="translate(301,136)"/>
<path d="M0 0 C2 3 2 3 3 5 C0.69 5 -1.62 5 -4 5 C-2.25 1.125 -2.25 1.125 0 0 Z " fill="#F3F3F3" transform="translate(86,360)"/>
<path d="M0 0 C0.66 1.32 1.32 2.64 2 4 C0.35 4.66 -1.3 5.32 -3 6 C-2.625 3.5625 -2.625 3.5625 -2 1 C-1.34 0.67 -0.68 0.34 0 0 Z " fill="#F3F3F3" transform="translate(294,344)"/>
<path d="M0 0 C0.33 0 0.66 0 1 0 C1 1.98 1 3.96 1 6 C0.34 6 -0.32 6 -1 6 C-1.33 6.66 -1.66 7.32 -2 8 C-2.103125 7.360625 -2.20625 6.72125 -2.3125 6.0625 C-2.539375 5.381875 -2.76625 4.70125 -3 4 C-3.99 3.67 -4.98 3.34 -6 3 C-3.03 3.495 -3.03 3.495 0 4 C0 2.68 0 1.36 0 0 Z " fill="#F3F1F2" transform="translate(366,333)"/>
<path d="M0 0 C0.66 0 1.32 0 2 0 C2 0.66 2 1.32 2 2 C1.34 2 0.68 2 0 2 C-0.268125 2.61875 -0.53625 3.2375 -0.8125 3.875 C-2 6 -2 6 -5 8 C-5 6.68 -5 5.36 -5 4 C-4.01 3.67 -3.02 3.34 -2 3 C-1.34 2.01 -0.68 1.02 0 0 Z " fill="#E8E8E8" transform="translate(276,330)"/>
<path d="M0 0 C1.4540625 0.0309375 1.4540625 0.0309375 2.9375 0.0625 C1.2875 1.7125 -0.3625 3.3625 -2.0625 5.0625 C-2.7225 3.7425 -3.3825 2.4225 -4.0625 1.0625 C-3.0625 0.0625 -3.0625 0.0625 0 0 Z " fill="#969696" transform="translate(212.0625,326.9375)"/>
<path d="M0 0 C0.66 0 1.32 0 2 0 C2 0.66 2 1.32 2 2 C4.475 2.99 4.475 2.99 7 4 C4.50935112 4.68707555 2.62113708 5 0 5 C0 3.35 0 1.7 0 0 Z M-2 5 C0 6 0 6 0 6 Z " fill="#A2A2A2" transform="translate(174,240)"/>
<path d="M0 0 C0.99 0.66 1.98 1.32 3 2 C2.34 3.65 1.68 5.3 1 7 C0.01 6.67 -0.98 6.34 -2 6 C-1.125 1.125 -1.125 1.125 0 0 Z " fill="#BCBCBC" transform="translate(272,181)"/>
<path d="M0 0 C0.33 0.99 0.66 1.98 1 3 C2.32 2.34 3.64 1.68 5 1 C5.33 1.66 5.66 2.32 6 3 C4 5 4 5 1 6 C0 5 0 5 -0.0625 2.4375 C-0.041875 1.633125 -0.02125 0.82875 0 0 Z " fill="#D5D5D5" transform="translate(290,347)"/>
<path d="M0 0 C0.66 0.33 1.32 0.66 2 1 C2 2.32 2 3.64 2 5 C0.68 4.34 -0.64 3.68 -2 3 C-1.34 2.01 -0.68 1.02 0 0 Z M-4 3 C-3.34 3 -2.68 3 -2 3 C-2 3.66 -2 4.32 -2 5 C-2.66 5 -3.32 5 -4 5 C-4 4.34 -4 3.68 -4 3 Z " fill="#F2F2F2" transform="translate(319,246)"/>
<path d="M0 0 C0.99 0 1.98 0 3 0 C3 0.99 3 1.98 3 3 C2.34 3 1.68 3 1 3 C1 5.31 1 7.62 1 10 C0.67 10 0.34 10 0 10 C-0.19412181 8.52168779 -0.38012131 7.04230684 -0.5625 5.5625 C-0.66691406 4.73878906 -0.77132812 3.91507813 -0.87890625 3.06640625 C-0.91886719 2.38449219 -0.95882812 1.70257813 -1 1 C-0.67 0.67 -0.34 0.34 0 0 Z " fill="#9E9E9E" transform="translate(238,204)"/>
</svg>
